#N canvas 56 44 1920 966 12;
#X text 177 277 creation arguments are OSC address;
#X text 179 238 set message to change OSC address;
#X text 164 48 1 Set IP Address : network address;
#X text 164 68 2 Set Ports (sending and listening);
#X text 164 87 3 Set OSC Addresses (routing osc data;
#X text 155 26 Key Settings;
#X floatatom 43 194 5 0 0 0 - - - 0;
#N canvas 214 184 958 956 oscReceive 1;
#X obj 55 184 netreceive -u -b;
#X msg 78 143 listen 0;
#X text 152 143 stop listening;
#X text 64 58 packets from network;
#X text 173 177 UDP packets \, binary output, f 13;
#X obj 45 314 print;
#X obj 45 272 oscparse;
#X text 150 114 listen on port 8000;
#X obj 177 269 oscparse;
#X obj 177 293 list trim;
#X floatatom 46 406 5 0 0 0 - - - 0;
#X obj 177 319 route unity;
#X msg 66 115 listen 8000;
#X obj 66 84 loadbang;
#X floatatom 178 407 5 0 0 0 - - - 0;
#X floatatom 287 402 5 0 0 0 - - - 0;
#X obj 46 433 s val1;
#X obj 178 434 s val2;
#X obj 287 429 s val3;
#X obj 45 383 route noise_burst;
#X obj 177 384 route triangle;
#X obj 286 379 route sequence_metro;
#X floatatom 118 546 5 0 0 0 - - - 0;
#X obj 117 523 route footstep;
#X obj 118 573 s footstep;
#X floatatom 261 553 5 0 0 0 - - - 0;
#X obj 257 519 route footstep_vol;
#X obj 261 580 s footstep_vol;
#X floatatom 121 657 5 0 0 0 - - - 0;
#X obj 120 634 route jump;
#X obj 121 684 s jump;
#X floatatom 268 676 5 0 0 0 - - - 0;
#X obj 267 653 route jump_vol;
#X obj 268 703 s jump_vol;
#X floatatom 465 471 5 0 0 0 - - - 0;
#X obj 465 498 s stop_DSP;
#X obj 464 448 route stop_DSP;
#X floatatom 511 383 5 0 0 0 - - - 0;
#X obj 510 360 route thunder;
#X obj 511 410 s thunder;
#X floatatom 423 623 5 0 0 0 - - - 0;
#X obj 422 600 route trigger;
#X obj 423 650 s osctrig;
#X floatatom 512 681 5 0 0 0 - - - 0;
#X floatatom 631 699 5 0 0 0 - - - 0;
#X obj 630 676 route playseq;
#X obj 631 726 s oscplayseq;
#X floatatom 731 625 5 0 0 0 - - - 0;
#X floatatom 857 628 5 0 0 0 - - - 0;
#X floatatom 738 453 5 0 0 0 - - - 0;
#X obj 511 658 route probBass;
#X obj 512 708 s oscpBass;
#X obj 730 602 route probChimes;
#X obj 731 652 s oscpChimes;
#X obj 858 600 route selectSeq;
#X obj 738 423 route selectOrch;
#X obj 857 659 s oscSeq;
#X obj 737 480 s oscOrch;
#X connect 0 0 6 0;
#X connect 0 0 8 0;
#X connect 1 0 0 0;
#X connect 6 0 5 0;
#X connect 8 0 9 0;
#X connect 9 0 11 0;
#X connect 10 0 16 0;
#X connect 11 0 19 0;
#X connect 11 0 20 0;
#X connect 11 0 21 0;
#X connect 11 0 23 0;
#X connect 11 0 26 0;
#X connect 11 0 29 0;
#X connect 11 0 32 0;
#X connect 11 0 36 0;
#X connect 11 0 38 0;
#X connect 11 0 41 0;
#X connect 11 0 50 0;
#X connect 11 0 45 0;
#X connect 11 0 52 0;
#X connect 11 0 54 0;
#X connect 11 0 55 0;
#X connect 12 0 0 0;
#X connect 13 0 12 0;
#X connect 14 0 17 0;
#X connect 15 0 18 0;
#X connect 19 0 10 0;
#X connect 20 0 14 0;
#X connect 21 0 15 0;
#X connect 22 0 24 0;
#X connect 23 0 22 0;
#X connect 25 0 27 0;
#X connect 26 0 25 0;
#X connect 28 0 30 0;
#X connect 29 0 28 0;
#X connect 31 0 33 0;
#X connect 32 0 31 0;
#X connect 34 0 35 0;
#X connect 36 0 34 0;
#X connect 37 0 39 0;
#X connect 38 0 37 0;
#X connect 40 0 42 0;
#X connect 41 0 40 0;
#X connect 43 0 51 0;
#X connect 44 0 46 0;
#X connect 45 0 44 0;
#X connect 47 0 53 0;
#X connect 48 0 56 0;
#X connect 49 0 57 0;
#X connect 50 0 43 0;
#X connect 52 0 47 0;
#X connect 54 0 48 0;
#X connect 55 0 49 0;
#X restore 47 142 pd oscReceive;
#X obj 46 36 tgl 15 0 empty empty empty 17 7 0 10 #fcfcfc #000000 #000000 0 1;
#X msg 47 61 \; pd dsp \$1;
#X obj 44 278 oscformat PD message;
#X msg 76 239 set PD message;
#N canvas -91 231 1920 976 oscSend 0;
#X msg 158 207 disconnect;
#X obj 61 253 netsend -u -b;
#X obj 59 55 list prepend send;
#X obj 59 80 list trim;
#X msg 150 175 connect 127.0.0.1 8001;
#X obj 59 29 r oscOut;
#X text 301 163 send to port 8001;
#X msg 147 148 connect localhost 8001;
#X obj 147 108 loadbang;
#X connect 0 0 1 0;
#X connect 2 0 3 0;
#X connect 3 0 1 0;
#X connect 4 0 1 0;
#X connect 5 0 2 0;
#X connect 7 0 1 0;
#X connect 8 0 7 0;
#X restore 47 118 pd oscSend;
#X obj 44 313 s oscOut;
#X text 1303 -111 Frequency;
#X obj 71 -57 r stop_DSP;
#X obj 1174 -104 r footstep;
#X obj 1712 522 noise~;
#X obj 1710 665 dac~;
#X obj 1712 544 *~;
#X obj 1633 47 bng 15 250 50 0 empty empty empty 0 -6 0 8 #fcfcfc #000000 #000000;
#X msg 1833 251 0;
#X obj 1768 324 *~;
#X obj 1768 273 phasor~ 20;
#X obj 1768 250 *~ -1;
#X obj 1768 390 *~;
#X obj 1711 618 hip~ 90;
#X obj 1768 163 *~ 6;
#N canvas 78 280 337 375 clamped-modes 0;
#X msg 98 30 1 6.267 17.55 34.39;
#X obj 113 116 *~;
#X obj 98 51 unpack f f f f;
#X obj 144 116 *~;
#X obj 175 115 *~;
#X obj 82 153 cos~;
#X obj 113 153 cos~;
#X obj 144 153 cos~;
#X obj 175 153 cos~;
#X obj 82 116 *~;
#X obj 144 334 *~;
#X obj 82 177 *~ 0.5;
#X obj 113 196 *~ 0.25;
#X obj 144 215 *~ 0.125;
#X obj 175 234 *~ 0.0625;
#X obj 8 6 inlet~ drive;
#X obj 176 267 inlet env;
#X obj 98 6 loadbang;
#X text 244 27 Olsen pp. 76;
#X msg 176 288 1500;
#N canvas 0 0 186 198 quenv 0;
#X msg 8 28 0 \, 1 0 0 \, 0 \$1 0;
#X obj 8 50 vline~;
#X obj 8 75 *~;
#X obj 8 5 inlet;
#X obj 8 126 outlet~;
#X obj 8 101 *~;
#X connect 0 0 1 0;
#X connect 1 0 2 0;
#X connect 1 0 2 1;
#X connect 2 0 5 0;
#X connect 2 0 5 1;
#X connect 3 0 0 0;
#X connect 5 0 4 0;
#X restore 176 309 pd quenv;
#X obj 143 356 outlet~;
#X connect 0 0 2 0;
#X connect 1 0 6 0;
#X connect 2 0 9 1;
#X connect 2 1 1 1;
#X connect 2 2 3 1;
#X connect 2 3 4 1;
#X connect 3 0 7 0;
#X connect 4 0 8 0;
#X connect 5 0 11 0;
#X connect 6 0 12 0;
#X connect 7 0 13 0;
#X connect 8 0 14 0;
#X connect 9 0 5 0;
#X connect 10 0 21 0;
#X connect 11 0 10 0;
#X connect 12 0 10 0;
#X connect 13 0 10 0;
#X connect 14 0 10 0;
#X connect 15 0 1 0;
#X connect 15 0 3 0;
#X connect 15 0 4 0;
#X connect 15 0 9 0;
#X connect 16 0 19 0;
#X connect 17 0 0 0;
#X connect 19 0 20 0;
#X connect 20 0 10 1;
#X restore 1863 354 pd clamped-modes;
#N canvas 0 0 478 298 free-modes 0;
#X obj 107 53 unpack f f f f f f;
#X obj 4 127 inlet~;
#X obj 155 249 outlet~;
#X msg 107 32 1 2.7565 5.40392 8.93295 13.3443 18.6379;
#X obj 107 9 loadbang;
#X text 177 10 from Benson pp.128;
#X obj 356 120 inlet res;
#X obj 4 206 vcf~ 1 1;
#X obj 64 206 vcf~ 1 1;
#X obj 124 206 vcf~ 1 1;
#X obj 184 206 vcf~ 1 1;
#X obj 244 206 vcf~ 1 1;
#X obj 305 206 vcf~ 1 1;
#X obj 89 124 *~;
#X obj 119 124 *~;
#X obj 149 124 *~;
#X obj 179 124 *~;
#X obj 209 124 *~;
#X obj 239 124 *~;
#X obj 35 37 inlet~;
#X connect 0 0 13 1;
#X connect 0 1 14 1;
#X connect 0 2 15 1;
#X connect 0 3 16 1;
#X connect 0 4 17 1;
#X connect 0 5 18 1;
#X connect 1 0 7 0;
#X connect 1 0 8 0;
#X connect 1 0 9 0;
#X connect 1 0 10 0;
#X connect 1 0 11 0;
#X connect 1 0 12 0;
#X connect 3 0 0 0;
#X connect 4 0 3 0;
#X connect 6 0 7 2;
#X connect 6 0 8 2;
#X connect 6 0 9 2;
#X connect 6 0 10 2;
#X connect 6 0 11 2;
#X connect 6 0 12 2;
#X connect 7 0 2 0;
#X connect 8 0 2 0;
#X connect 9 0 2 0;
#X connect 10 0 2 0;
#X connect 11 0 2 0;
#X connect 12 0 2 0;
#X connect 13 0 7 1;
#X connect 14 0 8 1;
#X connect 15 0 9 1;
#X connect 16 0 10 1;
#X connect 17 0 11 1;
#X connect 18 0 12 1;
#X connect 19 0 13 0;
#X connect 19 0 14 0;
#X connect 19 0 15 0;
#X connect 19 0 16 0;
#X connect 19 0 17 0;
#X connect 19 0 18 0;
#X restore 1712 590 pd free-modes;
#X obj 1712 566 lop~ 4000;
#X obj 1768 229 +~;
#X obj 1833 228 r trig;
#X obj 1633 66 s trig;
#X obj 1970 331 r trig;
#X obj 1754 68 r trig;
#X msg 1798 568 80;
#X obj 1798 548 loadbang;
#X obj 1863 402 *~ 0.2;
#X obj 1711 639 *~ 4;
#X msg 1754 89 7000;
#X obj 1635 122 sig~;
#X obj 1635 239 s~ freq;
#X obj 1784 186 r~ freq;
#X obj 1784 207 /~ 4;
#X obj 1787 431 r~ freq;
#X obj 1770 452 *~ 0.1;
#X obj 1755 473 *~;
#X obj 1754 494 +~;
#X obj 1635 217 +~;
#X obj 1652 195 *~;
#X obj 1668 177 nbx 5 12 1 6 0 1 empty empty vibrato 0 -6 1 8 #fcfcfc #000000 #000000 6 256;
#X obj 1635 105 nbx 5 12 20 800 0 1 empty empty frequency 0 -6 1 8 #fcfcfc #000000 #000000 426 256;
#X obj 1652 142 osc~ 5;
#X obj 1754 135 *~ 3;
#N canvas 0 0 243 468 env16p 0;
#X msg 8 28 0 \, 1 0 0 \, 0 \$1 0;
#X obj 8 50 vline~;
#X obj 8 75 *~;
#X obj 8 5 inlet;
#X obj 8 211 outlet~;
#X obj 8 101 *~;
#X obj 8 125 *~;
#X obj 8 147 *~;
#X obj 8 167 *~;
#X obj 8 189 *~;
#X connect 0 0 1 0;
#X connect 1 0 2 0;
#X connect 1 0 2 1;
#X connect 2 0 5 0;
#X connect 2 0 5 1;
#X connect 3 0 0 0;
#X connect 5 0 6 0;
#X connect 5 0 6 1;
#X connect 6 0 7 0;
#X connect 6 0 7 1;
#X connect 7 0 8 0;
#X connect 7 0 8 1;
#X connect 8 0 9 0;
#X connect 8 0 9 1;
#X connect 9 0 4 0;
#X restore 1754 110 pd env16p;
#X obj 1633 2 r jump;
#X obj 1164 90 *~ 0.1;
#X obj 1164 113 sqrt~;
#X obj 1160 278 dac~;
#X obj 1164 -52 vline~;
#X obj 1164 14 cos~;
#X obj 1164 36 lop~ 0.1;
#X msg 1262 -16 0 \, 1 500;
#X text 1235 -74 press repeatedly;
#N canvas 216 38 368 237 regular-roll 0;
#X obj 74 193 rzero~ 0.9;
#X obj -2 66 phasor~ 1;
#X obj -2 139 wrap~;
#X obj 51 139 wrap~;
#X obj 102 139 wrap~;
#X obj 155 138 wrap~;
#X obj 68 66 unpack f f f f f f f f;
#X msg 89 44 2 0.1 3 0.05 4.2 0.02 5.6 0.012;
#X msg 107 23 1.3 0.1 1.7 0.05 2.4 0.02 8.1 0.012;
#X obj 89 -2 loadbang;
#X text 179 2 roll pattern;
#X obj 74 216 outlet~;
#X obj -2 -2 inlet~ speed;
#X obj -2 119 *~;
#X obj 51 119 *~;
#X obj 102 119 *~;
#X obj 155 118 *~;
#X obj -2 160 *~;
#X obj 51 160 *~;
#X obj 102 160 *~;
#X obj 155 160 *~;
#X connect 0 0 11 0;
#X connect 1 0 13 0;
#X connect 1 0 14 0;
#X connect 1 0 15 0;
#X connect 1 0 16 0;
#X connect 2 0 17 0;
#X connect 3 0 18 0;
#X connect 4 0 19 0;
#X connect 5 0 20 0;
#X connect 6 0 13 1;
#X connect 6 1 17 1;
#X connect 6 2 14 1;
#X connect 6 3 18 1;
#X connect 6 4 15 1;
#X connect 6 5 19 1;
#X connect 6 6 16 1;
#X connect 6 7 20 1;
#X connect 7 0 6 0;
#X connect 8 0 6 0;
#X connect 9 0 7 0;
#X connect 12 0 1 0;
#X connect 13 0 2 0;
#X connect 14 0 3 0;
#X connect 15 0 4 0;
#X connect 16 0 5 0;
#X connect 17 0 0 0;
#X connect 18 0 0 0;
#X connect 19 0 0 0;
#X connect 20 0 0 0;
#X restore 1217 91 pd regular-roll;
#N canvas 672 161 251 307 irregular-ground 0;
#X obj 18 -50 noise~;
#X obj 18 -13 max~ 0;
#X msg 938 99 0.54;
#X obj 19 109 samphold~;
#X obj 19 132 rzero~ 0.99;
#X obj 20 208 outlet~;
#X obj 141 6 phasor~ 12;
#X obj 76 56 +~;
#X obj 76 9 *~ 0.001;
#X obj 19 182 *~;
#X obj 142 -23 *~ 100;
#X obj 142 -70 inlet~ speed;
#X obj 19 155 *~ 0.05;
#X connect 0 0 1 0;
#X connect 0 0 8 0;
#X connect 1 0 3 0;
#X connect 3 0 4 0;
#X connect 4 0 12 0;
#X connect 6 0 7 1;
#X connect 7 0 3 1;
#X connect 8 0 7 0;
#X connect 9 0 5 0;
#X connect 10 0 6 0;
#X connect 11 0 10 0;
#X connect 11 0 9 1;
#X connect 12 0 9 0;
#X restore 1217 148 pd irregular-ground;
#X obj 1164 184 *~;
#X obj 1217 123 *~ 0.5;
#N canvas 231 301 272 251 tincan 0;
#X obj 76 190 *~ 1000;
#X obj 76 232 *~ 0.4;
#X obj -2 0 inlet~;
#X obj 94 1 loadbang;
#X obj 76 253 outlet~;
#X msg 94 23 359 426 1748 3000 123;
#X obj 94 45 unpack f f f f f;
#X obj -2 135 bp~ 1 1;
#X obj 76 135 bp~ 1 1;
#X obj 143 136 bp~ 1 1;
#X obj 213 136 bp~ 1 1;
#X obj 76 157 *~ 0.3;
#X obj 213 157 *~ 0.2;
#X obj -2 158 *~ 0.2;
#X obj 143 157 *~ 0.3;
#X obj 76 211 clip~ -0.3 0.3;
#X connect 0 0 15 0;
#X connect 1 0 4 0;
#X connect 2 0 7 0;
#X connect 2 0 8 0;
#X connect 2 0 9 0;
#X connect 2 0 10 0;
#X connect 3 0 5 0;
#X connect 5 0 6 0;
#X connect 6 0 7 1;
#X connect 6 1 8 1;
#X connect 6 2 9 1;
#X connect 6 3 10 1;
#X connect 6 4 8 2;
#X connect 6 4 7 2;
#X connect 6 4 9 2;
#X connect 6 4 10 2;
#X connect 7 0 13 0;
#X connect 8 0 11 0;
#X connect 9 0 14 0;
#X connect 10 0 12 0;
#X connect 11 0 0 0;
#X connect 12 0 0 0;
#X connect 13 0 0 0;
#X connect 14 0 0 0;
#X connect 15 0 1 0;
#X coords 0 0 1 1 240 160 0;
#X restore 1164 229 pd tincan;
#X obj 1261 -43 bng 16 250 50 0 empty empty empty 0 -8 0 10 #fcfcfc #000000 #000000;
#X obj 1164 207 hip~ 20;
#X obj 1164 -8 -~ 0.15;
#X obj 1164 -30 *~ 0.5;
#X obj 1164 58 *~ 1.2;
#X obj 1746 781 *~ 0.9;
#N canvas 152 29 188 323 afterimage 0;
#X obj 1 114 noise~;
#X obj 16 176 noise~;
#X obj 1 199 *~;
#X obj 1 241 bp~ 333 4;
#X obj 1 135 lop~ 3;
#X obj 1 220 clip~ -1 1;
#X obj 52 68 line;
#X obj 52 109 + 3;
#X obj 52 89 * 30;
#X obj 1 156 *~ 80;
#X obj 117 67 line;
#X obj 1 263 *~;
#X msg 52 48 1 \, 0 600;
#X msg 117 47 1 \, 0 6000;
#X obj 1 283 *~ 0.9;
#X obj 85 23 del 200;
#X obj 85 1 inlet;
#X obj 1 303 outlet~;
#X connect 0 0 4 0;
#X connect 1 0 2 1;
#X connect 2 0 5 0;
#X connect 3 0 11 0;
#X connect 4 0 9 0;
#X connect 5 0 3 0;
#X connect 6 0 8 0;
#X connect 7 0 4 1;
#X connect 8 0 7 0;
#X connect 9 0 2 0;
#X connect 10 0 11 1;
#X connect 11 0 14 0;
#X connect 12 0 6 0;
#X connect 13 0 10 0;
#X connect 14 0 17 0;
#X connect 15 0 12 0;
#X connect 15 0 13 0;
#X connect 16 0 15 0;
#X restore 1746 759 pd afterimage;
#X obj 1770 930 distance;
#X obj 1821 906 line;
#X obj 1509 739 r go;
#X obj 1746 736 r go;
#X obj 1848 734 r go;
#X obj 1626 738 r go;
#X obj 1684 717 line;
#X msg 1684 694 1 \, 0 9000;
#X obj 1684 672 r go;
#X obj 1821 861 r go;
#X obj 1770 1016 dac~;
#X obj 1784 956 s~ udly;
#X obj 1624 932 catch~ la;
#X obj 1866 931 catch~ ra;
#X obj 1988 780 s shake;
#X obj 1988 759 r go;
#X obj 1510 680 bng 15 250 50 0 empty empty empty 0 -6 0 8 #fcfcfc #000000 #000000;
#X obj 1510 702 s go;
#X obj 1684 739 * 2000;
#X msg 1821 883 0 \, 1 12000;
#X obj 1746 803 throw~ out;
#X obj 1695 932 catch~ out;
#X obj 1848 803 throw~ distance;
#X obj 1627 803 throw~ distance;
#X obj 1770 841 catch~ distance;
#N canvas 132 138 177 510 rumble 0;
#X obj 17 110 noise~;
#X obj 33 314 -~ 0.5;
#X obj 33 339 *~;
#X obj 33 359 *~ -4;
#X obj 33 379 +~ 1;
#X obj 33 399 *~ 0.5;
#X obj 75 28 noise~;
#X obj 75 89 max~ 0;
#X obj 17 172 samphold~;
#X msg 938 102 0.54;
#X obj 75 151 phasor~;
#X obj 75 111 *~ 3000;
#X obj 17 419 *~;
#X obj 17 439 hip~ 100;
#X obj 17 192 rpole~ 0.99;
#X obj 17 212 *~ 0.04;
#X obj 75 131 +~ 1;
#X obj 81 -12 inlet density;
#X obj 17 131 lop~;
#X obj 17 152 lop~;
#X obj 75 68 lop~;
#X obj 75 48 lop~;
#X obj 1 480 outlet~;
#X obj 17 241 min~ 0;
#X obj 17 263 *~ -1;
#X obj 65 240 max~ 0;
#X obj 17 286 +~;
#X obj 1 28 vline~;
#X obj 1 459 *~;
#X obj 1 -12 inlet trig;
#X msg 1 8 1 50 \, 0 8000 50;
#X connect 0 0 18 0;
#X connect 1 0 2 0;
#X connect 1 0 2 1;
#X connect 2 0 3 0;
#X connect 3 0 4 0;
#X connect 4 0 5 0;
#X connect 5 0 12 1;
#X connect 6 0 21 0;
#X connect 7 0 11 0;
#X connect 8 0 14 0;
#X connect 10 0 8 1;
#X connect 11 0 16 0;
#X connect 12 0 13 0;
#X connect 13 0 28 1;
#X connect 14 0 15 0;
#X connect 15 0 25 0;
#X connect 15 0 23 0;
#X connect 16 0 10 0;
#X connect 17 0 20 1;
#X connect 17 0 21 1;
#X connect 17 0 18 1;
#X connect 17 0 19 1;
#X connect 18 0 19 0;
#X connect 19 0 8 0;
#X connect 20 0 7 0;
#X connect 21 0 20 0;
#X connect 23 0 24 0;
#X connect 24 0 26 0;
#X connect 25 0 26 1;
#X connect 26 0 1 0;
#X connect 26 0 12 0;
#X connect 27 0 28 0;
#X connect 28 0 22 0;
#X connect 29 0 30 0;
#X connect 30 0 27 0;
#X restore 1626 761 pd rumble;
#N canvas 264 575 152 190 strike 0;
#X obj 0 172 outlet~;
#X obj 1 44 route 0 1 2 3;
#X obj 1 0 inlet;
#X obj 1 23 strike-pattern;
#X obj 1 67 strike-sound;
#X obj 22 87 strike-sound;
#X obj 44 107 strike-sound;
#X obj 65 126 strike-sound;
#X connect 1 0 4 0;
#X connect 1 1 5 0;
#X connect 1 2 6 0;
#X connect 1 3 7 0;
#X connect 2 0 3 0;
#X connect 3 0 1 0;
#X connect 4 0 0 0;
#X connect 5 0 0 0;
#X connect 6 0 0 0;
#X connect 7 0 0 0;
#X restore 1509 762 pd strike sound;
#N canvas 148 116 232 212 deep 0;
#X obj 8 -8 noise~;
#X obj 7 161 *~;
#X obj 84 115 *~;
#X obj 84 49 del 1000;
#X obj 84 28 inlet;
#X obj 7 181 outlet~;
#X obj 84 91 vline~;
#X msg 84 70 1 2000 \, 0 20000 2000;
#X obj 8 12 lop~ 80;
#X obj 8 32 lop~ 80;
#X obj 8 52 hip~ 15;
#X obj 8 92 clip~ -1 1;
#X obj 8 72 *~ 12;
#X obj 8 112 lop~ 80;
#X obj 8 132 lop~ 80;
#X connect 0 0 8 0;
#X connect 1 0 5 0;
#X connect 2 0 1 1;
#X connect 3 0 7 0;
#X connect 4 0 3 0;
#X connect 6 0 2 0;
#X connect 6 0 2 1;
#X connect 7 0 6 0;
#X connect 8 0 9 0;
#X connect 9 0 10 0;
#X connect 10 0 12 0;
#X connect 11 0 13 0;
#X connect 12 0 11 0;
#X connect 13 0 14 0;
#X connect 14 0 1 0;
#X restore 1848 756 pd deep;
#X obj 1509 803 throw~ out;
#X obj 1509 783 *~ 0.3;
#X obj 1627 782 *~ 0.3;
#X obj 1848 779 *~ 0.5;
#X obj 1496 637 r thunder;
#X floatatom 482 911 5 0 0 0 - - - 0;
#X obj 431 910 tgl 15 0 empty empty empty 17 7 0 10 #fcfcfc #000000 #000000 0 1;
#X obj 282 2194 dac~;
#X obj 258 1495 mtof;
#X obj 235 1111 bng 15 250 50 0 empty empty empty 17 7 0 10 #fcfcfc #000000 #000000;
#X obj 1008 1182 bng 15 250 50 0 empty empty empty 17 7 0 10 #fcfcfc #000000 #000000;
#X obj 1056 1832 dac~;
#X obj 1008 1236 f;
#X obj 1051 1238 + 1;
#X obj 1010 1304 select 0 1 2 3;
#X obj 1009 1272 mod 4;
#X floatatom 1102 1099 5 0 0 0 - - - 0;
#N canvas 186 80 299 281 randomTrigger 0;
#X obj 53 142 <= 1;
#X obj 54 58 random 1000;
#X obj 54 81 / 1000;
#X floatatom 172 99 5 0 1 0 - - - 0;
#X floatatom 53 106 5 0 0 0 - - - 0;
#X floatatom 53 188 5 0 0 0 - - - 0;
#X obj 42 228 select 1;
#X obj 43 19 inlet;
#X obj 177 41 inlet;
#X obj 42 261 outlet;
#X connect 0 0 5 0;
#X connect 1 0 2 0;
#X connect 2 0 4 0;
#X connect 3 0 0 1;
#X connect 4 0 0 0;
#X connect 5 0 6 0;
#X connect 6 0 9 0;
#X connect 7 0 1 0;
#X connect 8 0 3 0;
#X restore 1009 1131 pd randomTrigger;
#X floatatom 329 1048 5 0 0 0 - - - 0;
#N canvas 186 80 299 257 randomTrigger 0;
#X obj 53 142 <= 1;
#X obj 54 58 random 1000;
#X obj 54 81 / 1000;
#X floatatom 172 99 5 0 1 0 - - - 0;
#X floatatom 53 106 5 0 0 0 - - - 0;
#X floatatom 53 188 5 0 0 0 - - - 0;
#X obj 42 228 select 1;
#X obj 43 19 inlet;
#X obj 177 41 inlet;
#X obj 42 261 outlet;
#X connect 0 0 5 0;
#X connect 1 0 2 0;
#X connect 2 0 4 0;
#X connect 3 0 0 1;
#X connect 4 0 0 0;
#X connect 5 0 6 0;
#X connect 6 0 9 0;
#X connect 7 0 1 0;
#X connect 8 0 3 0;
#X restore 236 1079 pd randomTrigger;
#X obj 1558 1019 bng 15 250 50 0 empty empty empty 17 7 0 10 #fcfcfc #000000 #000000;
#X obj 432 940 metro 250;
#N canvas 770 49 864 973 genStinger 0;
#X obj 86 370 random 5;
#X obj 86 404 select 0 1 2 3 4;
#X msg 81 453 0;
#X msg 203 453 7;
#X obj 157 507 + 0;
#X floatatom 322 466 5 0 0 0 - - - 0;
#X obj 322 413 loadbang;
#X obj 83 27 bng 15 250 50 0 empty empty empty 17 7 0 10 #fcfcfc #000000 #000000;
#X floatatom 145 643 5 0 0 0 - - - 0;
#X obj 166 856 *~;
#X obj 144 612 mtof;
#X obj 128 970 outlet~;
#X obj 83 1 inlet;
#X obj 145 724 osc~;
#X msg 120 453 3;
#X msg 162 453 5;
#X msg 249 454 10;
#X obj 162 91 random 200;
#X obj 157 161 t b f;
#X obj 155 197 del;
#X obj 244 232 t b f;
#X obj 242 268 del;
#X obj 244 165 + 100;
#X obj 362 254 t b f;
#X obj 360 290 del;
#X obj 365 186 + 100;
#X floatatom 532 751 5 0 0 0 - - - 0;
#X floatatom 513 722 5 0 0 0 - - - 0;
#X floatatom 496 697 5 0 0 0 - - - 0;
#X floatatom 461 650 5 0 0 0 - - - 0;
#X floatatom 479 675 5 0 0 0 - - - 0;
#X text 499 648 peak level;
#X text 520 670 attack duration (ms);
#X text 534 692 decay duration (ms);
#X text 554 718 sustain level (% of peak);
#X text 566 748 release duration (ms);
#N canvas 251 52 707 458 envelope_adsr 0;
#X obj 209 53 moses;
#X obj 112 56 inlet;
#X obj 112 92 sel 0;
#X msg 111 130 stop;
#X obj 209 93 t b b;
#X obj 258 125 t b;
#X obj 174 209 f \$1;
#X obj 174 245 pack 0 \$2;
#X msg 125 245 0;
#X obj 337 145 inlet;
#X obj 377 145 inlet;
#X obj 421 145 inlet;
#X obj 461 145 inlet;
#X obj 314 239 del \$2;
#X obj 314 265 f \$4;
#X obj 390 268 * \$1;
#X obj 389 299 pack 0 \$3;
#X obj 472 301 pack 0 \$5;
#X obj 518 269 inlet;
#X obj 354 358 line~;
#X obj 354 386 outlet~;
#X obj 313 299 * 0.5;
#X connect 0 0 4 0;
#X connect 0 1 5 0;
#X connect 1 0 2 0;
#X connect 2 0 3 0;
#X connect 2 0 17 0;
#X connect 2 1 0 0;
#X connect 3 0 13 0;
#X connect 4 0 5 0;
#X connect 4 1 8 0;
#X connect 5 0 6 0;
#X connect 5 0 13 0;
#X connect 6 0 7 0;
#X connect 7 0 19 0;
#X connect 8 0 19 0;
#X connect 9 0 15 1;
#X connect 9 0 6 1;
#X connect 10 0 13 1;
#X connect 10 0 7 1;
#X connect 11 0 16 1;
#X connect 12 0 14 1;
#X connect 13 0 14 0;
#X connect 14 0 21 0;
#X connect 15 0 16 0;
#X connect 16 0 19 0;
#X connect 17 0 19 0;
#X connect 18 0 17 1;
#X connect 19 0 20 0;
#X connect 21 0 15 0;
#X restore 438 789 pd envelope_adsr;
#X msg 541 604 1;
#X obj 548 561 loadbang;
#X obj 412 688 tgl 15 0 empty empty empty 17 7 0 10 #fcfcfc #000000 #000000 0 1;
#X obj 419 570 bng 15 250 50 0 empty empty empty 17 7 0 10 #fcfcfc #000000 #000000;
#X msg 390 646 1;
#X msg 422 646 0;
#X obj 422 613 del 1000;
#X msg 662 605 500;
#X msg 578 603 50;
#X msg 619 603 1;
#X obj 195 727 osc~;
#N canvas 270 86 1178 553 chorus 0;
#X obj 23 259 delwrite~ \$0-delay 1000;
#X obj 221 106 osc~ 0.05;
#X obj 221 131 *~ 10;
#X obj 376 130 *~ 10;
#X obj 221 156 +~ 11;
#X obj 376 155 +~ 21;
#X obj 376 105 osc~ 0.08;
#X obj 511 135 *~ 10;
#X obj 511 110 osc~ 0.13;
#X obj 511 160 +~ 13;
#X obj 694 142 *~ 10;
#X obj 694 167 +~ 55;
#X obj 694 117 osc~ 0.03;
#X obj 839 168 +~ 87;
#X obj 839 118 osc~ 0.015;
#X obj 985 114 osc~ 0.12;
#X obj 985 164 +~ 67;
#X obj 985 139 *~ 5;
#X obj 839 143 *~ 15;
#X obj 221 184 vd~ \$0-delay;
#X obj 376 183 vd~ \$0-delay;
#X obj 511 188 vd~ \$0-delay;
#X obj 694 195 vd~ \$0-delay;
#X obj 839 196 vd~ \$0-delay;
#X obj 985 192 vd~ \$0-delay;
#X obj 61 145 nbx 5 14 -1e+37 1e+37 0 0 empty empty empty 0 -8 0 10 #fcfcfc #000000 #000000 0 256;
#X obj 22 92 inlet~;
#X obj 532 418 outlet~;
#X obj 630 416 outlet~;
#X obj 271 269 *~ 0.05;
#X obj 214 270 *~ 0.95;
#X obj 1032 261 *~ 0.95;
#X obj 975 262 *~ 0.05;
#X obj 884 262 *~ 0.85;
#X obj 368 266 *~ 0.85;
#X obj 498 267 *~ 0.7;
#X obj 744 263 *~ 0.7;
#X obj 827 263 *~ 0.15;
#X obj 687 264 *~ 0.3;
#X obj 555 266 *~ 0.3;
#X obj 425 265 *~ 0.15;
#X obj 222 221 /~ 6;
#X obj 375 224 /~ 6;
#X obj 512 221 /~ 6;
#X obj 696 226 /~ 6;
#X obj 841 224 /~ 6;
#X obj 988 225 /~ 6;
#X obj 23 172 *~ 1;
#X connect 1 0 2 0;
#X connect 2 0 4 0;
#X connect 3 0 5 0;
#X connect 4 0 19 0;
#X connect 5 0 20 0;
#X connect 6 0 3 0;
#X connect 7 0 9 0;
#X connect 8 0 7 0;
#X connect 9 0 21 0;
#X connect 10 0 11 0;
#X connect 11 0 22 0;
#X connect 12 0 10 0;
#X connect 13 0 23 0;
#X connect 14 0 18 0;
#X connect 15 0 17 0;
#X connect 16 0 24 0;
#X connect 17 0 16 0;
#X connect 18 0 13 0;
#X connect 19 0 41 0;
#X connect 20 0 42 0;
#X connect 21 0 43 0;
#X connect 22 0 44 0;
#X connect 23 0 45 0;
#X connect 24 0 46 0;
#X connect 25 0 47 1;
#X connect 26 0 47 0;
#X connect 29 0 28 0;
#X connect 30 0 27 0;
#X connect 31 0 28 0;
#X connect 32 0 27 0;
#X connect 33 0 28 0;
#X connect 34 0 27 0;
#X connect 35 0 27 0;
#X connect 36 0 28 0;
#X connect 37 0 27 0;
#X connect 38 0 27 0;
#X connect 39 0 28 0;
#X connect 40 0 28 0;
#X connect 41 0 30 0;
#X connect 41 0 29 0;
#X connect 42 0 34 0;
#X connect 42 0 40 0;
#X connect 43 0 35 0;
#X connect 43 0 39 0;
#X connect 44 0 36 0;
#X connect 44 0 38 0;
#X connect 45 0 33 0;
#X connect 45 0 37 0;
#X connect 46 0 31 0;
#X connect 46 0 32 0;
#X connect 47 0 0 0;
#X restore 161 926 pd chorus;
#N canvas 1026 414 479 474 distortion 0;
#X obj 147 32 inlet~;
#X obj 159 351 outlet~;
#N canvas 0 23 713 460 tanh 0;
#X obj 241 65 inlet~;
#X text 493 89 __;
#X text 575 89 __;
#X text 527 89 __;
#X text 626 89 __;
#X text 493 106 1 +;
#X text 529 106 3 +;
#X text 577 106 5 +;
#X text 627 106 7 +;
#X text 443 32 As a continued fraction;
#X obj 240 148 *~;
#X obj 165 265 /~;
#X obj 165 350 /~;
#X obj 165 288 /~;
#X obj 165 321 /~;
#X text 427 78 tanh(z) = z z^2 4z^2 9z^2 ...;
#X obj 292 175 *~ 4;
#X obj 291 206 +~ 3;
#X obj 335 174 *~ 9;
#X obj 334 205 +~ 5;
#X obj 375 175 *~ 16;
#X obj 374 205 +~ 7;
#X obj 240 206 +~ 1;
#X obj 165 401 outlet~;
#X obj 165 372 *~ 576;
#X text 276 114 1/pi;
#X obj 241 89 *~ 0.30831;
#X connect 0 0 26 0;
#X connect 10 0 16 0;
#X connect 10 0 18 0;
#X connect 10 0 20 0;
#X connect 10 0 22 0;
#X connect 11 0 13 0;
#X connect 12 0 24 0;
#X connect 13 0 14 0;
#X connect 14 0 12 0;
#X connect 16 0 17 0;
#X connect 17 0 13 1;
#X connect 18 0 19 0;
#X connect 19 0 14 1;
#X connect 20 0 21 0;
#X connect 21 0 12 1;
#X connect 22 0 11 1;
#X connect 24 0 23 0;
#X connect 26 0 10 1;
#X connect 26 0 10 0;
#X connect 26 0 11 0;
#X restore 238 187 pd tanh afarnell;
#X obj 233 142 *~ 4.44;
#X obj 244 243 *~ 0.35;
#X obj 121 229 *~ 0.65;
#X connect 0 0 3 0;
#X connect 0 0 5 0;
#X connect 2 0 4 0;
#X connect 3 0 2 0;
#X connect 4 0 1 0;
#X connect 5 0 1 0;
#X restore 159 887 pd distortion;
#X obj 206 968 outlet~;
#X obj 194 760 *~ 0.5;
#X obj 184 690 * 3;
#X msg 322 440 95;
#X obj 243 200 + 25;
#X obj 363 220 + 25;
#X obj 162 127 + 200;
#X obj 255 119 random 100;
#X obj 376 140 random 100;
#X connect 0 0 1 0;
#X connect 1 0 2 0;
#X connect 1 1 14 0;
#X connect 1 2 15 0;
#X connect 1 3 3 0;
#X connect 1 4 16 0;
#X connect 2 0 4 0;
#X connect 3 0 4 0;
#X connect 4 0 10 0;
#X connect 4 0 40 0;
#X connect 5 0 4 1;
#X connect 6 0 53 0;
#X connect 7 0 0 0;
#X connect 7 0 17 0;
#X connect 8 0 13 0;
#X connect 8 0 52 0;
#X connect 9 0 49 0;
#X connect 10 0 8 0;
#X connect 12 0 7 0;
#X connect 13 0 9 0;
#X connect 14 0 4 0;
#X connect 15 0 4 0;
#X connect 16 0 4 0;
#X connect 17 0 56 0;
#X connect 18 0 19 0;
#X connect 18 0 57 0;
#X connect 18 1 19 1;
#X connect 18 1 22 1;
#X connect 19 0 0 0;
#X connect 20 0 21 0;
#X connect 20 0 58 0;
#X connect 20 1 21 1;
#X connect 20 1 25 1;
#X connect 21 0 0 0;
#X connect 22 0 54 0;
#X connect 23 0 24 0;
#X connect 23 1 24 1;
#X connect 24 0 0 0;
#X connect 25 0 55 0;
#X connect 26 0 36 5;
#X connect 27 0 36 4;
#X connect 28 0 36 3;
#X connect 29 0 36 1;
#X connect 30 0 36 2;
#X connect 36 0 9 1;
#X connect 37 0 29 0;
#X connect 38 0 37 0;
#X connect 38 0 45 0;
#X connect 38 0 46 0;
#X connect 38 0 44 0;
#X connect 39 0 36 0;
#X connect 40 0 41 0;
#X connect 40 0 43 0;
#X connect 41 0 39 0;
#X connect 42 0 39 0;
#X connect 43 0 42 0;
#X connect 44 0 26 0;
#X connect 45 0 30 0;
#X connect 45 0 28 0;
#X connect 46 0 27 0;
#X connect 47 0 51 0;
#X connect 48 0 11 0;
#X connect 48 1 50 0;
#X connect 49 0 48 0;
#X connect 51 0 9 0;
#X connect 52 0 47 0;
#X connect 53 0 5 0;
#X connect 54 0 20 0;
#X connect 55 0 23 0;
#X connect 56 0 18 0;
#X connect 57 0 22 0;
#X connect 58 0 25 0;
#X restore 1559 1068 pd genStinger;
#N canvas 434 144 826 842 genPentatonic 0;
#X obj 75 77 random 5;
#X obj 75 111 select 0 1 2 3 4;
#X msg 70 160 0;
#X msg 192 160 7;
#X obj 145 253 + 0;
#X floatatom 311 173 5 0 0 0 - - - 0;
#X obj 311 120 loadbang;
#X msg 311 147 59;
#X obj 83 27 bng 15 250 50 0 empty empty empty 17 7 0 10 #fcfcfc #000000 #000000;
#X floatatom 139 334 5 0 0 0 - - - 0;
#X obj 137 684 *~;
#X obj 138 303 mtof;
#X obj 138 718 outlet~;
#X obj 83 1 inlet;
#X obj 139 486 osc~;
#X msg 109 160 3;
#X msg 150 160 5;
#X msg 239 161 10;
#X floatatom 526 489 5 0 0 0 - - - 0;
#X floatatom 507 460 5 0 0 0 - - - 0;
#X floatatom 490 435 5 0 0 0 - - - 0;
#X floatatom 455 388 5 0 0 0 - - - 0;
#X floatatom 473 413 5 0 0 0 - - - 0;
#X text 493 386 peak level;
#X text 514 408 attack duration (ms);
#X text 528 430 decay duration (ms);
#X text 548 456 sustain level (% of peak);
#X text 560 486 release duration (ms);
#N canvas 251 52 707 458 envelope_adsr 0;
#X obj 209 53 moses;
#X obj 112 56 inlet;
#X obj 112 92 sel 0;
#X msg 111 130 stop;
#X obj 209 93 t b b;
#X obj 258 125 t b;
#X obj 174 209 f \$1;
#X obj 174 245 pack 0 \$2;
#X msg 125 245 0;
#X obj 337 145 inlet;
#X obj 377 145 inlet;
#X obj 421 145 inlet;
#X obj 461 145 inlet;
#X obj 314 239 del \$2;
#X obj 314 265 f \$4;
#X obj 390 268 * \$1;
#X obj 389 299 pack 0 \$3;
#X obj 472 301 pack 0 \$5;
#X obj 518 269 inlet;
#X obj 354 358 line~;
#X obj 354 386 outlet~;
#X obj 313 299 * 0.5;
#X connect 0 0 4 0;
#X connect 0 1 5 0;
#X connect 1 0 2 0;
#X connect 2 0 3 0;
#X connect 2 0 17 0;
#X connect 2 1 0 0;
#X connect 3 0 13 0;
#X connect 4 0 5 0;
#X connect 4 1 8 0;
#X connect 5 0 6 0;
#X connect 5 0 13 0;
#X connect 6 0 7 0;
#X connect 7 0 19 0;
#X connect 8 0 19 0;
#X connect 9 0 15 1;
#X connect 9 0 6 1;
#X connect 10 0 13 1;
#X connect 10 0 7 1;
#X connect 11 0 16 1;
#X connect 12 0 14 1;
#X connect 13 0 14 0;
#X connect 14 0 21 0;
#X connect 15 0 16 0;
#X connect 16 0 19 0;
#X connect 17 0 19 0;
#X connect 18 0 17 1;
#X connect 19 0 20 0;
#X connect 21 0 15 0;
#X restore 432 527 pd envelope_adsr;
#X msg 535 342 1;
#X obj 542 299 loadbang;
#X obj 406 426 tgl 15 0 empty empty empty 17 7 0 10 #fcfcfc #000000 #000000 0 1;
#X obj 413 308 bng 15 250 50 0 empty empty empty 17 7 0 10 #fcfcfc #000000 #000000;
#X msg 384 384 1;
#X msg 416 384 0;
#X msg 695 344 1800;
#X msg 572 341 50;
#X msg 605 344 100;
#X obj 182 488 osc~;
#X obj 184 456 * 1.5;
#X obj 234 487 osc~;
#X msg 651 342 0.25;
#X obj 236 456 * 3;
#X obj 416 351 del 50;
#X connect 0 0 1 0;
#X connect 1 0 2 0;
#X connect 1 1 15 0;
#X connect 1 2 16 0;
#X connect 1 3 3 0;
#X connect 1 4 17 0;
#X connect 2 0 4 0;
#X connect 3 0 4 0;
#X connect 4 0 11 0;
#X connect 5 0 4 1;
#X connect 6 0 7 0;
#X connect 7 0 5 0;
#X connect 8 0 0 0;
#X connect 8 0 32 0;
#X connect 9 0 14 0;
#X connect 9 0 39 0;
#X connect 9 0 42 0;
#X connect 10 0 12 0;
#X connect 11 0 9 0;
#X connect 13 0 8 0;
#X connect 14 0 10 0;
#X connect 15 0 4 0;
#X connect 16 0 4 0;
#X connect 17 0 4 0;
#X connect 18 0 28 5;
#X connect 19 0 28 4;
#X connect 20 0 28 3;
#X connect 21 0 28 1;
#X connect 22 0 28 2;
#X connect 28 0 10 1;
#X connect 29 0 21 0;
#X connect 30 0 29 0;
#X connect 30 0 36 0;
#X connect 30 0 41 0;
#X connect 30 0 35 0;
#X connect 30 0 37 0;
#X connect 31 0 28 0;
#X connect 32 0 33 0;
#X connect 32 0 43 0;
#X connect 33 0 31 0;
#X connect 34 0 31 0;
#X connect 35 0 18 0;
#X connect 36 0 22 0;
#X connect 37 0 20 0;
#X connect 38 0 10 0;
#X connect 39 0 38 0;
#X connect 40 0 10 0;
#X connect 41 0 19 0;
#X connect 42 0 40 0;
#X connect 43 0 34 0;
#X restore 857 1408 pd genPentatonic;
#N canvas 260 136 744 892 genPentatonic 0;
#X obj 75 77 random 5;
#X obj 75 111 select 0 1 2 3 4;
#X msg 70 160 0;
#X obj 145 253 + 0;
#X floatatom 311 173 5 0 0 0 - - - 0;
#X obj 311 120 loadbang;
#X msg 311 147 59;
#X obj 83 27 bng 15 250 50 0 empty empty empty 17 7 0 10 #fcfcfc #000000 #000000;
#X floatatom 139 334 5 0 0 0 - - - 0;
#X obj 123 775 *~;
#X obj 138 303 mtof;
#X obj 126 799 outlet~;
#X obj 83 1 inlet;
#X obj 139 383 osc~;
#X msg 109 160 3;
#X msg 150 160 5;
#X msg 192 160 7;
#X msg 238 161 10;
#X floatatom 370 573 5 0 0 0 - - - 0;
#X floatatom 351 544 5 0 0 0 - - - 0;
#X floatatom 334 519 5 0 0 0 - - - 0;
#X floatatom 299 472 5 0 0 0 - - - 0;
#X floatatom 317 497 5 0 0 0 - - - 0;
#X text 337 470 peak level;
#X text 358 492 attack duration (ms);
#X text 372 514 decay duration (ms);
#X text 392 540 sustain level (% of peak);
#X text 404 570 release duration (ms);
#N canvas 251 52 707 458 envelope_adsr 0;
#X obj 209 53 moses;
#X obj 112 56 inlet;
#X obj 112 92 sel 0;
#X msg 111 130 stop;
#X obj 209 93 t b b;
#X obj 258 125 t b;
#X obj 174 209 f \$1;
#X obj 174 245 pack 0 \$2;
#X msg 125 245 0;
#X obj 337 145 inlet;
#X obj 377 145 inlet;
#X obj 421 145 inlet;
#X obj 461 145 inlet;
#X obj 314 239 del \$2;
#X obj 314 265 f \$4;
#X obj 390 268 * \$1;
#X obj 389 299 pack 0 \$3;
#X obj 472 301 pack 0 \$5;
#X obj 518 269 inlet;
#X obj 354 358 line~;
#X obj 354 386 outlet~;
#X obj 313 299 * 0.5;
#X connect 0 0 4 0;
#X connect 0 1 5 0;
#X connect 1 0 2 0;
#X connect 2 0 3 0;
#X connect 2 0 17 0;
#X connect 2 1 0 0;
#X connect 3 0 13 0;
#X connect 4 0 5 0;
#X connect 4 1 8 0;
#X connect 5 0 6 0;
#X connect 5 0 13 0;
#X connect 6 0 7 0;
#X connect 7 0 19 0;
#X connect 8 0 19 0;
#X connect 9 0 15 1;
#X connect 9 0 6 1;
#X connect 10 0 13 1;
#X connect 10 0 7 1;
#X connect 11 0 16 1;
#X connect 12 0 14 1;
#X connect 13 0 14 0;
#X connect 14 0 21 0;
#X connect 15 0 16 0;
#X connect 16 0 19 0;
#X connect 17 0 19 0;
#X connect 18 0 17 1;
#X connect 19 0 20 0;
#X connect 21 0 15 0;
#X restore 276 611 pd envelope_adsr;
#X msg 379 426 1;
#X obj 386 383 loadbang;
#X obj 250 510 tgl 15 0 empty empty empty 17 7 0 10 #fcfcfc #000000 #000000 0 1;
#X obj 257 392 bng 15 250 50 0 empty empty empty 17 7 0 10 #fcfcfc #000000 #000000;
#X msg 228 468 1;
#X msg 260 468 0;
#X msg 567 426 1800;
#X msg 416 425 50;
#X msg 460 424 100;
#X msg 524 424 0.25;
#X obj 260 435 del 50;
#X connect 0 0 1 0;
#X connect 1 0 2 0;
#X connect 1 1 14 0;
#X connect 1 2 15 0;
#X connect 1 3 16 0;
#X connect 1 4 17 0;
#X connect 2 0 3 0;
#X connect 3 0 10 0;
#X connect 4 0 3 1;
#X connect 5 0 6 0;
#X connect 6 0 4 0;
#X connect 7 0 0 0;
#X connect 7 0 32 0;
#X connect 8 0 13 0;
#X connect 9 0 11 0;
#X connect 10 0 8 0;
#X connect 12 0 7 0;
#X connect 13 0 9 0;
#X connect 14 0 3 0;
#X connect 15 0 3 0;
#X connect 16 0 3 0;
#X connect 17 0 3 0;
#X connect 18 0 28 5;
#X connect 19 0 28 4;
#X connect 20 0 28 3;
#X connect 21 0 28 1;
#X connect 22 0 28 2;
#X connect 28 0 9 1;
#X connect 29 0 21 0;
#X connect 30 0 29 0;
#X connect 30 0 36 0;
#X connect 30 0 38 0;
#X connect 30 0 35 0;
#X connect 30 0 37 0;
#X connect 31 0 28 0;
#X connect 32 0 33 0;
#X connect 32 0 39 0;
#X connect 33 0 31 0;
#X connect 34 0 31 0;
#X connect 35 0 18 0;
#X connect 36 0 22 0;
#X connect 37 0 20 0;
#X connect 38 0 19 0;
#X connect 39 0 34 0;
#X restore 971 1406 pd genPentatonic;
#N canvas 552 109 723 849 genPentatonic 0;
#X obj 75 77 random 5;
#X obj 75 111 select 0 1 2 3 4;
#X msg 70 160 0;
#X msg 192 160 7;
#X obj 145 253 + 0;
#X floatatom 311 173 5 0 0 0 - - - 0;
#X obj 311 120 loadbang;
#X msg 311 147 59;
#X obj 83 27 bng 15 250 50 0 empty empty empty 17 7 0 10 #fcfcfc #000000 #000000;
#X floatatom 139 334 5 0 0 0 - - - 0;
#X obj 134 721 *~;
#X obj 138 303 mtof;
#X obj 135 755 outlet~;
#X obj 83 1 inlet;
#X obj 127 488 osc~;
#X msg 109 160 3;
#X msg 150 160 5;
#X msg 238 161 10;
#X floatatom 450 577 5 0 0 0 - - - 0;
#X floatatom 431 548 5 0 0 0 - - - 0;
#X floatatom 414 523 5 0 0 0 - - - 0;
#X floatatom 379 476 5 0 0 0 - - - 0;
#X floatatom 397 501 5 0 0 0 - - - 0;
#X text 417 474 peak level;
#X text 438 496 attack duration (ms);
#X text 452 518 decay duration (ms);
#X text 472 544 sustain level (% of peak);
#X text 484 574 release duration (ms);
#N canvas 251 52 707 458 envelope_adsr 0;
#X obj 209 53 moses;
#X obj 112 56 inlet;
#X obj 112 92 sel 0;
#X msg 111 130 stop;
#X obj 209 93 t b b;
#X obj 258 125 t b;
#X obj 174 209 f \$1;
#X obj 174 245 pack 0 \$2;
#X msg 125 245 0;
#X obj 337 145 inlet;
#X obj 377 145 inlet;
#X obj 421 145 inlet;
#X obj 461 145 inlet;
#X obj 314 239 del \$2;
#X obj 314 265 f \$4;
#X obj 390 268 * \$1;
#X obj 389 299 pack 0 \$3;
#X obj 472 301 pack 0 \$5;
#X obj 518 269 inlet;
#X obj 354 358 line~;
#X obj 354 386 outlet~;
#X obj 313 299 * 0.5;
#X connect 0 0 4 0;
#X connect 0 1 5 0;
#X connect 1 0 2 0;
#X connect 2 0 3 0;
#X connect 2 0 17 0;
#X connect 2 1 0 0;
#X connect 3 0 13 0;
#X connect 4 0 5 0;
#X connect 4 1 8 0;
#X connect 5 0 6 0;
#X connect 5 0 13 0;
#X connect 6 0 7 0;
#X connect 7 0 19 0;
#X connect 8 0 19 0;
#X connect 9 0 15 1;
#X connect 9 0 6 1;
#X connect 10 0 13 1;
#X connect 10 0 7 1;
#X connect 11 0 16 1;
#X connect 12 0 14 1;
#X connect 13 0 14 0;
#X connect 14 0 21 0;
#X connect 15 0 16 0;
#X connect 16 0 19 0;
#X connect 17 0 19 0;
#X connect 18 0 17 1;
#X connect 19 0 20 0;
#X connect 21 0 15 0;
#X restore 356 615 pd envelope_adsr;
#X msg 459 430 1;
#X obj 466 387 loadbang;
#X obj 330 514 tgl 15 0 empty empty empty 17 7 0 10 #fcfcfc #000000 #000000 0 1;
#X obj 337 396 bng 15 250 50 0 empty empty empty 17 7 0 10 #fcfcfc #000000 #000000;
#X msg 308 472 1;
#X msg 340 472 0;
#X msg 664 434 1800;
#X msg 496 429 50;
#X msg 540 433 100;
#X obj 177 488 osc~;
#X obj 179 456 * 1.5;
#X obj 229 487 osc~;
#X obj 231 456 * 3;
#X msg 621 432 0.25;
#X obj 340 439 del 50;
#X connect 0 0 1 0;
#X connect 1 0 2 0;
#X connect 1 1 15 0;
#X connect 1 2 16 0;
#X connect 1 3 3 0;
#X connect 1 4 17 0;
#X connect 2 0 4 0;
#X connect 3 0 4 0;
#X connect 4 0 11 0;
#X connect 5 0 4 1;
#X connect 6 0 7 0;
#X connect 7 0 5 0;
#X connect 8 0 0 0;
#X connect 8 0 32 0;
#X connect 9 0 14 0;
#X connect 9 0 39 0;
#X connect 9 0 41 0;
#X connect 10 0 12 0;
#X connect 11 0 9 0;
#X connect 13 0 8 0;
#X connect 14 0 10 0;
#X connect 15 0 4 0;
#X connect 16 0 4 0;
#X connect 17 0 4 0;
#X connect 18 0 28 5;
#X connect 19 0 28 4;
#X connect 20 0 28 3;
#X connect 21 0 28 1;
#X connect 22 0 28 2;
#X connect 28 0 10 1;
#X connect 29 0 21 0;
#X connect 30 0 29 0;
#X connect 30 0 36 0;
#X connect 30 0 42 0;
#X connect 30 0 35 0;
#X connect 30 0 37 0;
#X connect 31 0 28 0;
#X connect 32 0 33 0;
#X connect 32 0 43 0;
#X connect 33 0 31 0;
#X connect 34 0 31 0;
#X connect 35 0 18 0;
#X connect 36 0 22 0;
#X connect 37 0 20 0;
#X connect 38 0 10 0;
#X connect 39 0 38 0;
#X connect 40 0 10 0;
#X connect 41 0 40 0;
#X connect 42 0 19 0;
#X connect 43 0 34 0;
#X restore 1095 1405 pd genPentatonic;
#N canvas 391 306 805 543 genPentatonic 0;
#X obj 75 77 random 5;
#X obj 75 111 select 0 1 2 3 4;
#X msg 70 160 0;
#X msg 192 160 7;
#X obj 145 253 + 0;
#X floatatom 311 173 5 0 0 0 - - - 0;
#X obj 311 120 loadbang;
#X msg 311 147 59;
#X obj 83 27 bng 15 250 50 0 empty empty empty 17 7 0 10 #fcfcfc #000000 #000000;
#X floatatom 139 334 5 0 0 0 - - - 0;
#X obj 137 734 *~;
#X obj 138 303 mtof;
#X obj 138 768 outlet~;
#X obj 83 1 inlet;
#X obj 134 484 osc~;
#X msg 109 160 3;
#X msg 151 160 5;
#X msg 238 161 10;
#X floatatom 392 552 5 0 0 0 - - - 0;
#X floatatom 373 523 5 0 0 0 - - - 0;
#X floatatom 356 498 5 0 0 0 - - - 0;
#X floatatom 321 451 5 0 0 0 - - - 0;
#X floatatom 339 476 5 0 0 0 - - - 0;
#X text 359 449 peak level;
#X text 380 471 attack duration (ms);
#X text 394 493 decay duration (ms);
#X text 414 519 sustain level (% of peak);
#X text 426 549 release duration (ms);
#N canvas 251 52 707 458 envelope_adsr 0;
#X obj 209 53 moses;
#X obj 112 56 inlet;
#X obj 112 92 sel 0;
#X msg 111 130 stop;
#X obj 209 93 t b b;
#X obj 258 125 t b;
#X obj 174 209 f \$1;
#X obj 174 245 pack 0 \$2;
#X msg 125 245 0;
#X obj 337 145 inlet;
#X obj 377 145 inlet;
#X obj 421 145 inlet;
#X obj 461 145 inlet;
#X obj 314 239 del \$2;
#X obj 314 265 f \$4;
#X obj 390 268 * \$1;
#X obj 389 299 pack 0 \$3;
#X obj 472 301 pack 0 \$5;
#X obj 518 269 inlet;
#X obj 354 358 line~;
#X obj 354 386 outlet~;
#X obj 313 299 * 0.5;
#X connect 0 0 4 0;
#X connect 0 1 5 0;
#X connect 1 0 2 0;
#X connect 2 0 3 0;
#X connect 2 0 17 0;
#X connect 2 1 0 0;
#X connect 3 0 13 0;
#X connect 4 0 5 0;
#X connect 4 1 8 0;
#X connect 5 0 6 0;
#X connect 5 0 13 0;
#X connect 6 0 7 0;
#X connect 7 0 19 0;
#X connect 8 0 19 0;
#X connect 9 0 15 1;
#X connect 9 0 6 1;
#X connect 10 0 13 1;
#X connect 10 0 7 1;
#X connect 11 0 16 1;
#X connect 12 0 14 1;
#X connect 13 0 14 0;
#X connect 14 0 21 0;
#X connect 15 0 16 0;
#X connect 16 0 19 0;
#X connect 17 0 19 0;
#X connect 18 0 17 1;
#X connect 19 0 20 0;
#X connect 21 0 15 0;
#X restore 298 590 pd envelope_adsr;
#X msg 401 405 1;
#X obj 408 362 loadbang;
#X obj 272 489 tgl 15 0 empty empty empty 17 7 0 10 #fcfcfc #000000 #000000 0 1;
#X obj 279 371 bng 15 250 50 0 empty empty empty 17 7 0 10 #fcfcfc #000000 #000000;
#X msg 250 447 1;
#X msg 282 447 0;
#X msg 568 406 1800;
#X msg 438 404 50;
#X msg 481 406 100;
#X msg 525 404 0.25;
#X obj 282 414 del 50;
#X connect 0 0 1 0;
#X connect 1 0 2 0;
#X connect 1 1 15 0;
#X connect 1 2 16 0;
#X connect 1 3 3 0;
#X connect 1 4 17 0;
#X connect 2 0 4 0;
#X connect 3 0 4 0;
#X connect 4 0 11 0;
#X connect 5 0 4 1;
#X connect 6 0 7 0;
#X connect 7 0 5 0;
#X connect 8 0 0 0;
#X connect 8 0 32 0;
#X connect 9 0 14 0;
#X connect 10 0 12 0;
#X connect 11 0 9 0;
#X connect 13 0 8 0;
#X connect 14 0 10 0;
#X connect 15 0 4 0;
#X connect 16 0 4 0;
#X connect 17 0 4 0;
#X connect 18 0 28 5;
#X connect 19 0 28 4;
#X connect 20 0 28 3;
#X connect 21 0 28 1;
#X connect 22 0 28 2;
#X connect 28 0 10 1;
#X connect 29 0 21 0;
#X connect 30 0 29 0;
#X connect 30 0 36 0;
#X connect 30 0 38 0;
#X connect 30 0 35 0;
#X connect 30 0 37 0;
#X connect 31 0 28 0;
#X connect 32 0 33 0;
#X connect 32 0 39 0;
#X connect 33 0 31 0;
#X connect 34 0 31 0;
#X connect 35 0 18 0;
#X connect 36 0 22 0;
#X connect 37 0 20 0;
#X connect 38 0 19 0;
#X connect 39 0 34 0;
#X restore 1217 1406 pd genPentatonic;
#N canvas 0 23 450 395 seq1 0;
#X obj 63 28 inlet;
#X obj 108 314 outlet;
#X obj 113 278 + 0;
#X obj 77 64 f;
#X obj 120 66 + 1;
#X obj 98 131 select 0 1 2 3;
#X floatatom 260 216 5 0 0 0 - - - 0;
#X obj 260 163 loadbang;
#X obj 97 99 mod 4;
#X msg 71 184 0;
#X msg 260 190 35;
#X msg 110 184 -5;
#X msg 151 184 0;
#X msg 194 184 3;
#X connect 0 0 3 0;
#X connect 2 0 1 0;
#X connect 3 0 4 0;
#X connect 3 0 8 0;
#X connect 4 0 3 1;
#X connect 5 0 9 0;
#X connect 5 1 11 0;
#X connect 5 2 12 0;
#X connect 5 3 13 0;
#X connect 6 0 2 1;
#X connect 7 0 10 0;
#X connect 8 0 5 0;
#X connect 9 0 2 0;
#X connect 10 0 6 0;
#X connect 11 0 2 0;
#X connect 12 0 2 0;
#X connect 13 0 2 0;
#X restore 182 1423 pd seq1;
#N canvas 0 23 450 395 seq2 0;
#X obj 63 28 inlet;
#X obj 102 356 outlet;
#X obj 123 287 + 0;
#X obj 87 73 f;
#X obj 130 75 + 1;
#X obj 108 140 select 0 1 2 3;
#X floatatom 270 225 5 0 0 0 - - - 0;
#X obj 270 172 loadbang;
#X obj 107 108 mod 4;
#X msg 270 199 35;
#X msg 81 193 -2;
#X msg 120 193 0;
#X msg 161 193 3;
#X msg 204 193 5;
#X connect 0 0 3 0;
#X connect 2 0 1 0;
#X connect 3 0 4 0;
#X connect 3 0 8 0;
#X connect 4 0 3 1;
#X connect 5 0 10 0;
#X connect 5 1 11 0;
#X connect 5 2 12 0;
#X connect 5 3 13 0;
#X connect 6 0 2 1;
#X connect 7 0 9 0;
#X connect 8 0 5 0;
#X connect 9 0 6 0;
#X connect 10 0 2 0;
#X connect 11 0 2 0;
#X connect 12 0 2 0;
#X connect 13 0 2 0;
#X restore 260 1422 pd seq2;
#N canvas 0 23 450 395 seq3 0;
#X obj 63 28 inlet;
#X obj 102 356 outlet;
#X obj 103 288 + 0;
#X obj 67 74 f;
#X obj 110 76 + 1;
#X floatatom 304 225 5 0 0 0 - - - 0;
#X obj 304 172 loadbang;
#X msg 304 199 35;
#X msg 61 194 8;
#X msg 100 194 7;
#X msg 141 194 5;
#X msg 184 194 7;
#X obj 88 141 select 0 1 2 3 4;
#X msg 229 195 0;
#X obj 87 109 mod 5;
#X connect 0 0 3 0;
#X connect 2 0 1 0;
#X connect 3 0 4 0;
#X connect 3 0 14 0;
#X connect 4 0 3 1;
#X connect 5 0 2 1;
#X connect 6 0 7 0;
#X connect 7 0 5 0;
#X connect 8 0 2 0;
#X connect 9 0 2 0;
#X connect 10 0 2 0;
#X connect 11 0 2 0;
#X connect 12 0 8 0;
#X connect 12 1 9 0;
#X connect 12 2 10 0;
#X connect 12 3 11 0;
#X connect 12 4 13 0;
#X connect 13 0 2 0;
#X connect 14 0 12 0;
#X restore 334 1422 pd seq3;
#X floatatom 230 1275 5 0 0 0 - - - 0;
#X obj 230 1307 select 1 2 3;
#X msg 280 1173 1;
#X msg 316 1172 2;
#X msg 353 1172 3;
#X obj 230 1246 + 1;
#X floatatom 275 1217 5 0 0 0 - - - 0;
#X msg 231 1214 0;
#X text 395 1424 Different Sequences to cycle through;
#X text 348 1079 Probability based trigger;
#X text 325 1218 Route the trigger through 1 of 3 sequence options;
#N canvas 698 217 617 673 orhestration1 0;
#X obj 144 21 inlet;
#X obj 101 609 outlet~;
#X obj 138 168 phasor~;
#X floatatom 144 114 5 0 0 0 - - - 0;
#X obj 79 163 osc~;
#X obj 82 135 * 1.5;
#X obj 146 75 t b f;
#X obj 142 506 *~;
#X text 190 22 Frequency input;
#X text 154 611 audio output;
#X floatatom 374 383 5 0 0 0 - - - 0;
#X floatatom 355 354 5 0 0 0 - - - 0;
#X floatatom 338 329 5 0 0 0 - - - 0;
#X floatatom 303 282 5 0 0 0 - - - 0;
#X floatatom 321 307 5 0 0 0 - - - 0;
#X text 341 280 peak level;
#X text 362 302 attack duration (ms);
#X text 376 324 decay duration (ms);
#X text 396 350 sustain level (% of peak);
#X text 408 380 release duration (ms);
#N canvas 251 52 707 458 envelope_adsr 0;
#X obj 209 53 moses;
#X obj 112 56 inlet;
#X obj 112 92 sel 0;
#X msg 111 130 stop;
#X obj 209 93 t b b;
#X obj 258 125 t b;
#X obj 174 209 f \$1;
#X obj 174 245 pack 0 \$2;
#X msg 125 245 0;
#X obj 337 145 inlet;
#X obj 377 145 inlet;
#X obj 421 145 inlet;
#X obj 461 145 inlet;
#X obj 314 239 del \$2;
#X obj 314 265 f \$4;
#X obj 390 268 * \$1;
#X obj 389 299 pack 0 \$3;
#X obj 472 301 pack 0 \$5;
#X obj 518 269 inlet;
#X obj 354 358 line~;
#X obj 354 386 outlet~;
#X obj 313 299 * 0.5;
#X connect 0 0 4 0;
#X connect 0 1 5 0;
#X connect 1 0 2 0;
#X connect 2 0 3 0;
#X connect 2 0 17 0;
#X connect 2 1 0 0;
#X connect 3 0 13 0;
#X connect 4 0 5 0;
#X connect 4 1 8 0;
#X connect 5 0 6 0;
#X connect 5 0 13 0;
#X connect 6 0 7 0;
#X connect 7 0 19 0;
#X connect 8 0 19 0;
#X connect 9 0 15 1;
#X connect 9 0 6 1;
#X connect 10 0 13 1;
#X connect 10 0 7 1;
#X connect 11 0 16 1;
#X connect 12 0 14 1;
#X connect 13 0 14 0;
#X connect 14 0 21 0;
#X connect 15 0 16 0;
#X connect 16 0 19 0;
#X connect 17 0 19 0;
#X connect 18 0 17 1;
#X connect 19 0 20 0;
#X connect 21 0 15 0;
#X restore 280 421 pd envelope_adsr;
#X msg 383 236 1;
#X obj 390 193 loadbang;
#X obj 254 320 tgl 15 0 empty empty empty 17 7 0 10 #fcfcfc #000000 #000000 0 1;
#X obj 261 202 bng 15 250 50 0 empty empty empty 17 7 0 10 #fcfcfc #000000 #000000;
#X msg 232 278 1;
#X msg 264 278 0;
#X msg 500 236 1;
#X msg 543 238 700;
#X msg 453 238 1;
#N canvas 1026 414 479 474 distortion 0;
#X obj 147 32 inlet~;
#X obj 159 351 outlet~;
#N canvas 0 23 713 460 tanh 0;
#X obj 241 65 inlet~;
#X text 493 89 __;
#X text 575 89 __;
#X text 527 89 __;
#X text 626 89 __;
#X text 493 106 1 +;
#X text 529 106 3 +;
#X text 577 106 5 +;
#X text 627 106 7 +;
#X text 443 32 As a continued fraction;
#X obj 240 148 *~;
#X obj 165 265 /~;
#X obj 165 350 /~;
#X obj 165 288 /~;
#X obj 165 321 /~;
#X text 427 78 tanh(z) = z z^2 4z^2 9z^2 ...;
#X obj 292 175 *~ 4;
#X obj 291 206 +~ 3;
#X obj 335 174 *~ 9;
#X obj 334 205 +~ 5;
#X obj 375 175 *~ 16;
#X obj 374 205 +~ 7;
#X obj 240 206 +~ 1;
#X obj 165 401 outlet~;
#X obj 165 372 *~ 576;
#X text 276 114 1/pi;
#X obj 241 89 *~ 0.30831;
#X connect 0 0 26 0;
#X connect 10 0 16 0;
#X connect 10 0 18 0;
#X connect 10 0 20 0;
#X connect 10 0 22 0;
#X connect 11 0 13 0;
#X connect 12 0 24 0;
#X connect 13 0 14 0;
#X connect 14 0 12 0;
#X connect 16 0 17 0;
#X connect 17 0 13 1;
#X connect 18 0 19 0;
#X connect 19 0 14 1;
#X connect 20 0 21 0;
#X connect 21 0 12 1;
#X connect 22 0 11 1;
#X connect 24 0 23 0;
#X connect 26 0 10 1;
#X connect 26 0 10 0;
#X connect 26 0 11 0;
#X restore 238 187 pd tanh afarnell;
#X obj 232 142 *~ 4.5;
#X obj 122 229 *~ 0.75;
#X obj 244 243 *~ 0.25;
#X connect 0 0 3 0;
#X connect 0 0 4 0;
#X connect 2 0 5 0;
#X connect 3 0 2 0;
#X connect 4 0 1 0;
#X connect 5 0 1 0;
#X restore 124 549 pd distortion;
#X msg 420 236 100;
#X obj 264 245 del 100;
#X obj 140 208 *~ 2;
#X obj 140 234 -~ 1;
#X obj 141 143 * 1;
#X connect 0 0 6 0;
#X connect 2 0 33 0;
#X connect 3 0 5 0;
#X connect 3 0 35 0;
#X connect 4 0 7 0;
#X connect 5 0 4 0;
#X connect 6 0 24 0;
#X connect 6 1 3 0;
#X connect 7 0 30 0;
#X connect 10 0 20 5;
#X connect 11 0 20 4;
#X connect 12 0 20 3;
#X connect 13 0 20 1;
#X connect 14 0 20 2;
#X connect 20 0 7 1;
#X connect 21 0 13 0;
#X connect 22 0 21 0;
#X connect 22 0 31 0;
#X connect 22 0 27 0;
#X connect 22 0 28 0;
#X connect 22 0 29 0;
#X connect 23 0 20 0;
#X connect 24 0 25 0;
#X connect 24 0 32 0;
#X connect 25 0 23 0;
#X connect 26 0 23 0;
#X connect 27 0 11 0;
#X connect 28 0 10 0;
#X connect 29 0 12 0;
#X connect 30 0 1 0;
#X connect 31 0 14 0;
#X connect 32 0 26 0;
#X connect 33 0 34 0;
#X connect 34 0 7 0;
#X connect 35 0 2 0;
#X restore 146 1821 pd orhestration1;
#X obj 252 1649 pack \$1 \$2;
#X floatatom 147 1799 5 0 0 0 - - - 0;
#X floatatom 284 1796 5 0 0 0 - - - 0;
#X msg 343 1546 2;
#X msg 374 1546 3;
#X floatatom 302 1591 5 0 0 0 - - - 0;
#X obj 255 1545 t b f;
#X obj 251 1681 route 0 1 2 3;
#X msg 307 1547 1;
#N canvas 631 69 571 808 orhestration2 0;
#X obj 144 21 inlet;
#X obj 154 783 outlet~;
#X floatatom 144 153 5 0 0 0 - - - 0;
#X obj 84 231 osc~;
#X obj 146 114 t b f;
#X obj 157 650 *~;
#X text 190 22 Frequency input;
#X obj 143 235 osc~;
#X obj 21 237 osc~;
#X obj 87 203 * 2;
#X obj 148 76 * 2;
#X obj 23 264 *~ 0.5;
#X floatatom 380 413 5 0 0 0 - - - 0;
#X floatatom 361 384 5 0 0 0 - - - 0;
#X floatatom 344 359 5 0 0 0 - - - 0;
#X floatatom 309 312 5 0 0 0 - - - 0;
#X floatatom 327 337 5 0 0 0 - - - 0;
#X text 347 310 peak level;
#X text 368 332 attack duration (ms);
#X text 382 354 decay duration (ms);
#X text 402 380 sustain level (% of peak);
#X text 414 410 release duration (ms);
#N canvas 251 52 707 458 envelope_adsr 0;
#X obj 209 53 moses;
#X obj 112 56 inlet;
#X obj 112 92 sel 0;
#X msg 111 130 stop;
#X obj 209 93 t b b;
#X obj 258 125 t b;
#X obj 174 209 f \$1;
#X obj 174 245 pack 0 \$2;
#X msg 125 245 0;
#X obj 337 145 inlet;
#X obj 377 145 inlet;
#X obj 421 145 inlet;
#X obj 461 145 inlet;
#X obj 314 239 del \$2;
#X obj 314 265 f \$4;
#X obj 390 268 * \$1;
#X obj 389 299 pack 0 \$3;
#X obj 472 301 pack 0 \$5;
#X obj 518 269 inlet;
#X obj 354 358 line~;
#X obj 354 386 outlet~;
#X obj 313 299 * 0.5;
#X connect 0 0 4 0;
#X connect 0 1 5 0;
#X connect 1 0 2 0;
#X connect 2 0 3 0;
#X connect 2 0 17 0;
#X connect 2 1 0 0;
#X connect 3 0 13 0;
#X connect 4 0 5 0;
#X connect 4 1 8 0;
#X connect 5 0 6 0;
#X connect 5 0 13 0;
#X connect 6 0 7 0;
#X connect 7 0 19 0;
#X connect 8 0 19 0;
#X connect 9 0 15 1;
#X connect 9 0 6 1;
#X connect 10 0 13 1;
#X connect 10 0 7 1;
#X connect 11 0 16 1;
#X connect 12 0 14 1;
#X connect 13 0 14 0;
#X connect 14 0 21 0;
#X connect 15 0 16 0;
#X connect 16 0 19 0;
#X connect 17 0 19 0;
#X connect 18 0 17 1;
#X connect 19 0 20 0;
#X connect 21 0 15 0;
#X restore 286 451 pd envelope_adsr;
#X msg 389 266 1;
#X obj 396 223 loadbang;
#X obj 260 350 tgl 15 0 empty empty empty 17 7 0 10 #fcfcfc #000000 #000000 0 1;
#X obj 267 232 bng 15 250 50 0 empty empty empty 17 7 0 10 #fcfcfc #000000 #000000;
#X msg 238 308 1;
#X msg 270 308 0;
#X msg 459 268 1;
#X msg 506 266 1;
#X msg 549 268 700;
#N canvas 270 86 1178 553 chorus 0;
#X obj 221 106 osc~ 0.05;
#X obj 221 131 *~ 10;
#X obj 376 130 *~ 10;
#X obj 221 156 +~ 11;
#X obj 376 155 +~ 21;
#X obj 376 105 osc~ 0.08;
#X obj 511 135 *~ 10;
#X obj 511 110 osc~ 0.13;
#X obj 511 160 +~ 13;
#X obj 694 142 *~ 10;
#X obj 694 167 +~ 55;
#X obj 694 117 osc~ 0.03;
#X obj 839 168 +~ 87;
#X obj 839 118 osc~ 0.015;
#X obj 985 114 osc~ 0.12;
#X obj 985 164 +~ 67;
#X obj 985 139 *~ 5;
#X obj 839 143 *~ 15;
#X obj 61 145 nbx 5 14 -1e+37 1e+37 0 0 empty empty empty 0 -8 0 10 #fcfcfc #000000 #000000 0 256;
#X obj 22 92 inlet~;
#X obj 532 418 outlet~;
#X obj 630 416 outlet~;
#X obj 271 269 *~ 0.05;
#X obj 214 270 *~ 0.95;
#X obj 1032 261 *~ 0.95;
#X obj 975 262 *~ 0.05;
#X obj 884 262 *~ 0.85;
#X obj 368 266 *~ 0.85;
#X obj 498 267 *~ 0.7;
#X obj 744 263 *~ 0.7;
#X obj 827 263 *~ 0.15;
#X obj 687 264 *~ 0.3;
#X obj 555 266 *~ 0.3;
#X obj 425 265 *~ 0.15;
#X obj 222 221 /~ 6;
#X obj 375 224 /~ 6;
#X obj 512 221 /~ 6;
#X obj 696 226 /~ 6;
#X obj 841 224 /~ 6;
#X obj 988 225 /~ 6;
#X obj 23 172 *~ 1;
#X obj 23 259 delwrite~ delay2 1000;
#X obj 221 184 vd~ delay2;
#X obj 376 183 vd~ delay2;
#X obj 511 188 vd~ delay2;
#X obj 694 195 vd~ delay2;
#X obj 839 196 vd~ delay2;
#X obj 985 192 vd~ delay2;
#X connect 0 0 1 0;
#X connect 1 0 3 0;
#X connect 2 0 4 0;
#X connect 3 0 42 0;
#X connect 4 0 43 0;
#X connect 5 0 2 0;
#X connect 6 0 8 0;
#X connect 7 0 6 0;
#X connect 8 0 44 0;
#X connect 9 0 10 0;
#X connect 10 0 45 0;
#X connect 11 0 9 0;
#X connect 12 0 46 0;
#X connect 13 0 17 0;
#X connect 14 0 16 0;
#X connect 15 0 47 0;
#X connect 16 0 15 0;
#X connect 17 0 12 0;
#X connect 18 0 40 1;
#X connect 19 0 40 0;
#X connect 22 0 21 0;
#X connect 23 0 20 0;
#X connect 24 0 21 0;
#X connect 25 0 20 0;
#X connect 26 0 21 0;
#X connect 27 0 20 0;
#X connect 28 0 20 0;
#X connect 29 0 21 0;
#X connect 30 0 20 0;
#X connect 31 0 20 0;
#X connect 32 0 21 0;
#X connect 33 0 21 0;
#X connect 34 0 23 0;
#X connect 34 0 22 0;
#X connect 35 0 27 0;
#X connect 35 0 33 0;
#X connect 36 0 28 0;
#X connect 36 0 32 0;
#X connect 37 0 29 0;
#X connect 37 0 31 0;
#X connect 38 0 26 0;
#X connect 38 0 30 0;
#X connect 39 0 24 0;
#X connect 39 0 25 0;
#X connect 40 0 41 0;
#X connect 42 0 34 0;
#X connect 43 0 35 0;
#X connect 44 0 36 0;
#X connect 45 0 37 0;
#X connect 46 0 38 0;
#X connect 47 0 39 0;
#X restore 155 711 pd chorus;
#N canvas 70 339 447 447 xpand 0;
#X obj 77 49 inlet~;
#X obj 178 50 inlet~;
#X obj 131 110 +~;
#X obj 126 149 /~ 2;
#X obj 78 182 -~;
#X obj 173 182 -~;
#X obj 74 231 *~ 0;
#X obj 174 226 *~ 0;
#X obj 171 338 outlet~;
#X obj 71 337 outlet~;
#X floatatom 284 114 5 0 0 0 - - - 0;
#X obj 285 64 loadbang;
#X msg 288 90 2;
#X connect 0 0 2 0;
#X connect 0 0 4 0;
#X connect 1 0 2 1;
#X connect 1 0 5 1;
#X connect 2 0 3 0;
#X connect 3 0 4 1;
#X connect 3 0 5 0;
#X connect 3 0 8 0;
#X connect 3 0 9 0;
#X connect 4 0 6 0;
#X connect 5 0 7 0;
#X connect 6 0 9 0;
#X connect 7 0 8 0;
#X connect 10 0 7 1;
#X connect 10 0 6 1;
#X connect 11 0 12 0;
#X connect 12 0 10 0;
#X restore 169 753 pd xpand;
#X obj 236 781 outlet~;
#X obj 270 275 del 10;
#X msg 426 266 25;
#X obj 25 201 * 4;
#N canvas 1026 414 479 474 distortion 0;
#X obj 147 32 inlet~;
#X obj 159 351 outlet~;
#N canvas 0 23 713 460 tanh 0;
#X obj 241 65 inlet~;
#X text 493 89 __;
#X text 575 89 __;
#X text 527 89 __;
#X text 626 89 __;
#X text 493 106 1 +;
#X text 529 106 3 +;
#X text 577 106 5 +;
#X text 627 106 7 +;
#X text 443 32 As a continued fraction;
#X obj 240 148 *~;
#X obj 165 265 /~;
#X obj 165 350 /~;
#X obj 165 288 /~;
#X obj 165 321 /~;
#X text 427 78 tanh(z) = z z^2 4z^2 9z^2 ...;
#X obj 292 175 *~ 4;
#X obj 291 206 +~ 3;
#X obj 335 174 *~ 9;
#X obj 334 205 +~ 5;
#X obj 375 175 *~ 16;
#X obj 374 205 +~ 7;
#X obj 240 206 +~ 1;
#X obj 165 401 outlet~;
#X obj 165 372 *~ 576;
#X text 276 114 1/pi;
#X obj 241 89 *~ 0.30831;
#X connect 0 0 26 0;
#X connect 10 0 16 0;
#X connect 10 0 18 0;
#X connect 10 0 20 0;
#X connect 10 0 22 0;
#X connect 11 0 13 0;
#X connect 12 0 24 0;
#X connect 13 0 14 0;
#X connect 14 0 12 0;
#X connect 16 0 17 0;
#X connect 17 0 13 1;
#X connect 18 0 19 0;
#X connect 19 0 14 1;
#X connect 20 0 21 0;
#X connect 21 0 12 1;
#X connect 22 0 11 1;
#X connect 24 0 23 0;
#X connect 26 0 10 1;
#X connect 26 0 10 0;
#X connect 26 0 11 0;
#X restore 238 187 pd tanh afarnell;
#X obj 245 243 *~ 0.25;
#X obj 121 229 *~ 0.75;
#X obj 233 142 *~ 5;
#X connect 0 0 4 0;
#X connect 0 0 5 0;
#X connect 2 0 3 0;
#X connect 3 0 1 0;
#X connect 4 0 1 0;
#X connect 5 0 2 0;
#X restore 158 677 pd distortion;
#X connect 0 0 10 0;
#X connect 2 0 7 0;
#X connect 2 0 9 0;
#X connect 2 0 37 0;
#X connect 3 0 5 0;
#X connect 4 0 26 0;
#X connect 4 1 2 0;
#X connect 5 0 38 0;
#X connect 7 0 5 0;
#X connect 8 0 11 0;
#X connect 9 0 3 0;
#X connect 10 0 4 0;
#X connect 11 0 5 0;
#X connect 12 0 22 5;
#X connect 13 0 22 4;
#X connect 14 0 22 3;
#X connect 15 0 22 1;
#X connect 16 0 22 2;
#X connect 22 0 5 1;
#X connect 23 0 15 0;
#X connect 24 0 23 0;
#X connect 24 0 36 0;
#X connect 24 0 30 0;
#X connect 24 0 31 0;
#X connect 24 0 29 0;
#X connect 25 0 22 0;
#X connect 26 0 27 0;
#X connect 26 0 35 0;
#X connect 27 0 25 0;
#X connect 28 0 25 0;
#X connect 29 0 14 0;
#X connect 30 0 13 0;
#X connect 31 0 12 0;
#X connect 32 0 33 0;
#X connect 32 1 33 1;
#X connect 33 0 1 0;
#X connect 33 1 34 0;
#X connect 35 0 28 0;
#X connect 36 0 16 0;
#X connect 37 0 8 0;
#X connect 38 0 32 0;
#X restore 284 1819 pd orhestration2;
#X floatatom 463 1796 5 0 0 0 - - - 0;
#N canvas 776 114 623 892 orhestration3 0;
#X obj 144 21 inlet;
#X obj 118 852 outlet~;
#X floatatom 144 153 5 0 0 0 - - - 0;
#X obj 146 114 t b f;
#X obj 126 728 *~;
#X text 190 22 Frequency input;
#X text 176 848 audio output;
#X obj 144 232 phasor~;
#X obj 84 231 phasor~;
#X obj 87 202 * 1.5;
#X obj 36 234 osc~;
#X obj 37 202 * 0.5;
#X obj 148 76 * 2;
#X obj 83 326 *~ 0.5;
#X floatatom 354 489 5 0 0 0 - - - 0;
#X floatatom 335 460 5 0 0 0 - - - 0;
#X floatatom 318 435 5 0 0 0 - - - 0;
#X floatatom 283 388 5 0 0 0 - - - 0;
#X floatatom 301 413 5 0 0 0 - - - 0;
#X text 321 386 peak level;
#X text 342 408 attack duration (ms);
#X text 356 430 decay duration (ms);
#X text 376 456 sustain level (% of peak);
#X text 388 486 release duration (ms);
#N canvas 251 52 707 458 envelope_adsr 0;
#X obj 209 53 moses;
#X obj 112 56 inlet;
#X obj 112 92 sel 0;
#X msg 111 130 stop;
#X obj 209 93 t b b;
#X obj 258 125 t b;
#X obj 174 209 f \$1;
#X obj 174 245 pack 0 \$2;
#X msg 125 245 0;
#X obj 337 145 inlet;
#X obj 377 145 inlet;
#X obj 421 145 inlet;
#X obj 461 145 inlet;
#X obj 314 239 del \$2;
#X obj 314 265 f \$4;
#X obj 390 268 * \$1;
#X obj 389 299 pack 0 \$3;
#X obj 472 301 pack 0 \$5;
#X obj 518 269 inlet;
#X obj 354 358 line~;
#X obj 354 386 outlet~;
#X obj 313 299 * 0.5;
#X connect 0 0 4 0;
#X connect 0 1 5 0;
#X connect 1 0 2 0;
#X connect 2 0 3 0;
#X connect 2 0 17 0;
#X connect 2 1 0 0;
#X connect 3 0 13 0;
#X connect 4 0 5 0;
#X connect 4 1 8 0;
#X connect 5 0 6 0;
#X connect 5 0 13 0;
#X connect 6 0 7 0;
#X connect 7 0 19 0;
#X connect 8 0 19 0;
#X connect 9 0 15 1;
#X connect 9 0 6 1;
#X connect 10 0 13 1;
#X connect 10 0 7 1;
#X connect 11 0 16 1;
#X connect 12 0 14 1;
#X connect 13 0 14 0;
#X connect 14 0 21 0;
#X connect 15 0 16 0;
#X connect 16 0 19 0;
#X connect 17 0 19 0;
#X connect 18 0 17 1;
#X connect 19 0 20 0;
#X connect 21 0 15 0;
#X restore 260 527 pd envelope_adsr;
#X msg 363 342 1;
#X obj 370 299 loadbang;
#X obj 234 426 tgl 15 0 empty empty empty 17 7 0 10 #fcfcfc #000000 #000000 0 1;
#X obj 241 308 bng 15 250 50 0 empty empty empty 17 7 0 10 #fcfcfc #000000 #000000;
#X msg 212 384 1;
#X msg 244 384 0;
#X msg 433 344 1;
#X msg 480 342 1;
#N canvas 124 135 364 640 flanger 0;
#X obj 75 208 +~ 1;
#X obj 75 235 *~ 0.5;
#X obj 74 417 vd~ \$0-delay1, f 16;
#X text 73 100 Low Frequency Oscillator;
#X text 203 263 Depth (ms);
#X obj 74 513 *~ 1;
#X text 87 546 y[n] = x[n] + ax[n-t];
#X text 163 487 Feedback (0-1);
#X obj 75 181 osc~ 1;
#X text 117 513 ax[n-t];
#X text 131 156 Rate (Hz);
#X obj 45 545 +~, f 4;
#X obj 75 294 *~ 1, f 9;
#X obj 74 377 +~ 0.001, f 11;
#X obj 51 18 inlet~;
#X obj 46 606 outlet~;
#X obj 79 63 delwrite~ \$0-delay1 5000;
#X obj 145 232 loadbang;
#X msg 138 261 0.818;
#X obj 147 314 loadbang;
#X msg 140 343 0.818;
#X obj 106 454 loadbang;
#X msg 99 483 0.897;
#X obj 84 126 loadbang;
#X msg 77 155 0.236;
#X connect 0 0 1 0;
#X connect 1 0 12 0;
#X connect 2 0 5 0;
#X connect 5 0 11 1;
#X connect 8 0 0 0;
#X connect 11 0 15 0;
#X connect 12 0 13 0;
#X connect 13 0 2 0;
#X connect 14 0 11 0;
#X connect 14 0 16 0;
#X connect 17 0 18 0;
#X connect 18 0 12 1;
#X connect 19 0 20 0;
#X connect 20 0 13 1;
#X connect 21 0 22 0;
#X connect 22 0 5 1;
#X connect 23 0 24 0;
#X connect 24 0 8 0;
#X restore 121 807 pd flanger;
#N canvas 1026 414 479 474 distortion 0;
#X obj 147 32 inlet~;
#X obj 159 351 outlet~;
#N canvas 0 23 713 460 tanh 0;
#X obj 241 65 inlet~;
#X text 493 89 __;
#X text 575 89 __;
#X text 527 89 __;
#X text 626 89 __;
#X text 493 106 1 +;
#X text 529 106 3 +;
#X text 577 106 5 +;
#X text 627 106 7 +;
#X text 443 32 As a continued fraction;
#X obj 240 148 *~;
#X obj 165 265 /~;
#X obj 165 350 /~;
#X obj 165 288 /~;
#X obj 165 321 /~;
#X text 427 78 tanh(z) = z z^2 4z^2 9z^2 ...;
#X obj 292 175 *~ 4;
#X obj 291 206 +~ 3;
#X obj 335 174 *~ 9;
#X obj 334 205 +~ 5;
#X obj 375 175 *~ 16;
#X obj 374 205 +~ 7;
#X obj 240 206 +~ 1;
#X obj 165 401 outlet~;
#X obj 165 372 *~ 576;
#X text 276 114 1/pi;
#X obj 241 89 *~ 0.30831;
#X connect 0 0 26 0;
#X connect 10 0 16 0;
#X connect 10 0 18 0;
#X connect 10 0 20 0;
#X connect 10 0 22 0;
#X connect 11 0 13 0;
#X connect 12 0 24 0;
#X connect 13 0 14 0;
#X connect 14 0 12 0;
#X connect 16 0 17 0;
#X connect 17 0 13 1;
#X connect 18 0 19 0;
#X connect 19 0 14 1;
#X connect 20 0 21 0;
#X connect 21 0 12 1;
#X connect 22 0 11 1;
#X connect 24 0 23 0;
#X connect 26 0 10 1;
#X connect 26 0 10 0;
#X connect 26 0 11 0;
#X restore 238 187 pd tanh afarnell;
#X obj 244 243 *~ 0.1;
#X obj 121 229 *~ 0.9;
#X obj 233 142 *~ 10.44;
#X connect 0 0 4 0;
#X connect 0 0 5 0;
#X connect 2 0 3 0;
#X connect 3 0 1 0;
#X connect 4 0 1 0;
#X connect 5 0 2 0;
#X restore 125 758 pd distortion;
#X obj 83 259 *~ 2;
#X obj 83 286 -~ 1;
#X obj 142 261 *~ 2;
#X obj 142 288 -~ 1;
#X msg 400 342 100;
#X msg 523 344 800;
#X obj 244 351 del 100;
#X connect 0 0 12 0;
#X connect 2 0 7 0;
#X connect 2 0 9 0;
#X connect 2 0 11 0;
#X connect 3 0 28 0;
#X connect 3 1 2 0;
#X connect 4 0 34 0;
#X connect 7 0 37 0;
#X connect 8 0 35 0;
#X connect 9 0 8 0;
#X connect 10 0 4 0;
#X connect 11 0 10 0;
#X connect 12 0 3 0;
#X connect 13 0 4 0;
#X connect 14 0 24 5;
#X connect 15 0 24 4;
#X connect 16 0 24 3;
#X connect 17 0 24 1;
#X connect 18 0 24 2;
#X connect 24 0 4 1;
#X connect 25 0 17 0;
#X connect 26 0 25 0;
#X connect 26 0 39 0;
#X connect 26 0 32 0;
#X connect 26 0 40 0;
#X connect 26 0 31 0;
#X connect 27 0 24 0;
#X connect 28 0 29 0;
#X connect 28 0 41 0;
#X connect 29 0 27 0;
#X connect 30 0 27 0;
#X connect 31 0 16 0;
#X connect 32 0 15 0;
#X connect 33 0 1 0;
#X connect 34 0 33 0;
#X connect 35 0 36 0;
#X connect 36 0 13 0;
#X connect 37 0 38 0;
#X connect 38 0 4 0;
#X connect 39 0 18 0;
#X connect 40 0 14 0;
#X connect 41 0 30 0;
#X restore 462 1822 pd orhestration3;
#X text 346 1592 Route to 1 of 3 different orchestrations;
#X text 574 1826 Dffferent orchestrations to select from;
#X obj 345 998 loadbang;
#X obj 1102 1047 loadbang;
#X obj 134 1947 *~;
#X floatatom 193 1909 5 0 0 0 - - - 0;
#X obj 167 1946 *~;
#X obj 447 1962 *~;
#X floatatom 511 1924 5 0 0 0 - - - 0;
#X obj 480 1961 *~;
#X obj 288 1967 *~;
#X floatatom 364 1934 5 0 0 0 - - - 0;
#X obj 322 1970 *~;
#X obj 1044 1798 *~;
#X floatatom 1099 1759 5 0 0 0 - - - 0;
#X obj 1080 1798 *~;
#X obj 513 1874 loadbang;
#X obj 367 1885 loadbang;
#X obj 196 1857 loadbang;
#X obj 1102 1713 loadbang;
#X msg 336 1022 0.25;
#X msg 1102 1074 0.2;
#X obj 251 1619 + 1;
#X msg 252 1587 0;
#X obj 1601 1558 dac~;
#X obj 1589 1524 *~;
#X floatatom 1646 1483 5 0 0 0 - - - 0;
#X obj 1625 1524 *~;
#X obj 1658 1426 loadbang;
#N canvas 547 381 646 481 stereoReverb 0;
#X obj 122 375 outlet~;
#X obj 189 375 outlet~;
#X obj 125 30 inlet~;
#X obj 211 32 inlet~;
#X obj 143 237 rev3~ 100 90 3000 20;
#X text 377 176 crossover frequency \, Hz.;
#X obj 165 203 *~ -1;
#X text 305 112 output level (dB);
#X text 335 136 liveness \, feedback percentage (0-100), f 18;
#X text 392 203 High Frequency damping \, percentage (0-100), f 23;
#X obj 346 78 loadbang;
#X msg 337 174 5000;
#X msg 292 150 25;
#X msg 357 209 0;
#X msg 256 125 110;
#X connect 2 0 4 0;
#X connect 3 0 6 0;
#X connect 4 0 0 0;
#X connect 4 1 1 0;
#X connect 6 0 4 1;
#X connect 10 0 14 0;
#X connect 10 0 11 0;
#X connect 10 0 12 0;
#X connect 10 0 13 0;
#X connect 11 0 4 4;
#X connect 12 0 4 3;
#X connect 13 0 4 5;
#X connect 14 0 4 2;
#X restore 263 2155 pd stereoReverb;
#X msg 1656 1450 0.6;
#X msg 1100 1737 0.2;
#X msg 511 1898 0.1;
#X msg 365 1909 0.75;
#X msg 194 1881 0.25;
#X obj 1040 1683 rev3~ 100 90 3000 20;
#X text 1274 1622 crossover frequency \, Hz.;
#X obj 1062 1649 *~ -1;
#X text 1202 1558 output level (dB);
#X text 1232 1582 liveness \, feedback percentage (0-100), f 18;
#X text 1289 1649 High Frequency damping \, percentage (0-100), f 23;
#X obj 1243 1524 loadbang;
#X msg 1189 1596 75;
#X msg 1234 1620 1000;
#X msg 1254 1655 85;
#X obj 1583 1372 rev3~ 100 90 3000 20;
#X text 1817 1311 crossover frequency \, Hz.;
#X obj 1605 1338 *~ -1;
#X text 1745 1247 output level (dB);
#X text 1775 1271 liveness \, feedback percentage (0-100), f 18;
#X text 1832 1338 High Frequency damping \, percentage (0-100), f 23;
#X obj 1786 1213 loadbang;
#X msg 1732 1285 75;
#X msg 1797 1344 85;
#X msg 1777 1309 5000;
#X msg 1696 1259 100;
#X msg 1153 1570 100;
#X obj 1552 981 r osctrig;
#X obj 421 999 r oscpBass;
#X obj 1161 1047 r oscpChimes;
#X obj 396 1172 r oscSeq;
#X obj 417 1546 r oscOrch;
#X obj 432 878 r oscplayseq;
#X connect 6 0 10 0;
#X connect 8 0 9 0;
#X connect 10 0 13 0;
#X connect 11 0 10 0;
#X connect 15 0 8 0;
#X connect 16 0 70 0;
#X connect 17 0 19 0;
#X connect 19 0 30 0;
#X connect 20 0 33 0;
#X connect 21 0 23 1;
#X connect 22 0 25 0;
#X connect 23 0 28 0;
#X connect 23 0 22 0;
#X connect 23 0 22 1;
#X connect 24 0 23 0;
#X connect 25 0 19 1;
#X connect 26 0 39 0;
#X connect 27 0 31 0;
#X connect 28 0 38 0;
#X connect 28 0 25 1;
#X connect 29 0 26 0;
#X connect 30 0 29 0;
#X connect 31 0 24 0;
#X connect 32 0 21 0;
#X connect 34 0 28 1;
#X connect 35 0 40 0;
#X connect 36 0 29 2;
#X connect 37 0 36 0;
#X connect 38 0 26 0;
#X connect 39 0 18 0;
#X connect 39 0 18 1;
#X connect 40 0 55 0;
#X connect 41 0 49 0;
#X connect 43 0 44 0;
#X connect 44 0 31 1;
#X connect 45 0 46 0;
#X connect 45 0 48 1;
#X connect 46 0 47 1;
#X connect 47 0 48 0;
#X connect 48 0 29 1;
#X connect 49 0 42 0;
#X connect 50 0 49 1;
#X connect 51 0 50 1;
#X connect 52 0 41 0;
#X connect 53 0 50 0;
#X connect 54 0 27 0;
#X connect 54 0 47 0;
#X connect 55 0 54 0;
#X connect 56 0 20 0;
#X connect 57 0 58 0;
#X connect 58 0 67 0;
#X connect 60 0 73 0;
#X connect 61 0 62 0;
#X connect 62 0 74 0;
#X connect 63 0 60 0;
#X connect 65 0 67 1;
#X connect 66 0 67 1;
#X connect 67 0 71 0;
#X connect 68 0 66 0;
#X connect 69 0 59 0;
#X connect 69 0 59 1;
#X connect 70 0 63 0;
#X connect 71 0 69 0;
#X connect 72 0 61 0;
#X connect 73 0 72 0;
#X connect 74 0 57 0;
#X connect 74 0 65 0;
#X connect 74 0 68 0;
#X connect 75 0 97 0;
#X connect 76 0 75 0;
#X connect 77 0 87 0;
#X connect 77 0 87 1;
#X connect 77 0 88 0;
#X connect 78 0 77 1;
#X connect 79 0 103 0;
#X connect 80 0 76 0;
#X connect 81 0 104 0;
#X connect 82 0 102 0;
#X connect 83 0 95 0;
#X connect 84 0 83 0;
#X connect 85 0 84 0;
#X connect 86 0 96 0;
#X connect 89 0 87 0;
#X connect 90 0 87 1;
#X connect 92 0 91 0;
#X connect 93 0 94 0;
#X connect 95 0 102 1;
#X connect 96 0 78 0;
#X connect 98 0 87 0;
#X connect 98 0 87 1;
#X connect 101 0 77 0;
#X connect 102 0 107 0;
#X connect 103 0 106 0;
#X connect 104 0 108 0;
#X connect 106 0 105 0;
#X connect 107 0 100 0;
#X connect 108 0 99 0;
#X connect 109 0 93 0;
#X connect 110 0 126 1;
#X connect 111 0 126 0;
#X connect 113 0 153 0;
#X connect 114 0 142 0;
#X connect 115 0 117 0;
#X connect 117 0 118 0;
#X connect 117 0 120 0;
#X connect 118 0 117 1;
#X connect 119 0 128 0;
#X connect 119 1 129 0;
#X connect 119 2 130 0;
#X connect 119 3 131 0;
#X connect 120 0 119 0;
#X connect 121 0 122 1;
#X connect 122 0 115 0;
#X connect 123 0 124 1;
#X connect 124 0 114 0;
#X connect 125 0 127 0;
#X connect 126 0 124 0;
#X connect 126 0 122 0;
#X connect 127 0 204 0;
#X connect 127 1 206 0;
#X connect 128 0 194 0;
#X connect 129 0 194 0;
#X connect 129 0 196 0;
#X connect 130 0 196 0;
#X connect 131 0 194 0;
#X connect 131 0 196 0;
#X connect 132 0 113 0;
#X connect 133 0 113 0;
#X connect 134 0 113 0;
#X connect 135 0 136 0;
#X connect 136 0 132 0;
#X connect 136 1 133 0;
#X connect 136 2 134 0;
#X connect 137 0 141 0;
#X connect 138 0 141 0;
#X connect 139 0 141 0;
#X connect 140 0 135 0;
#X connect 141 0 140 1;
#X connect 142 0 140 0;
#X connect 146 0 163 0;
#X connect 146 0 165 0;
#X connect 147 0 154 0;
#X connect 148 0 146 0;
#X connect 149 0 156 0;
#X connect 150 0 152 0;
#X connect 151 0 152 0;
#X connect 152 0 181 1;
#X connect 153 0 182 0;
#X connect 153 1 147 1;
#X connect 154 1 148 0;
#X connect 154 2 149 0;
#X connect 154 3 157 0;
#X connect 155 0 152 0;
#X connect 156 0 169 0;
#X connect 156 1 171 0;
#X connect 157 0 158 0;
#X connect 158 0 166 0;
#X connect 158 0 168 0;
#X connect 161 0 179 0;
#X connect 162 0 180 0;
#X connect 163 0 188 0;
#X connect 164 0 165 1;
#X connect 164 0 163 1;
#X connect 165 0 188 1;
#X connect 166 0 188 0;
#X connect 167 0 168 1;
#X connect 167 0 166 1;
#X connect 168 0 188 1;
#X connect 169 0 188 0;
#X connect 170 0 171 1;
#X connect 170 0 169 1;
#X connect 171 0 188 1;
#X connect 172 0 116 0;
#X connect 173 0 174 1;
#X connect 173 0 172 1;
#X connect 174 0 116 1;
#X connect 175 0 191 0;
#X connect 176 0 192 0;
#X connect 177 0 193 0;
#X connect 178 0 190 0;
#X connect 179 0 123 0;
#X connect 180 0 121 0;
#X connect 181 0 147 0;
#X connect 182 0 181 0;
#X connect 184 0 183 0;
#X connect 185 0 186 1;
#X connect 185 0 184 1;
#X connect 186 0 183 1;
#X connect 187 0 189 0;
#X connect 188 0 112 0;
#X connect 188 1 112 1;
#X connect 189 0 185 0;
#X connect 190 0 173 0;
#X connect 191 0 167 0;
#X connect 192 0 170 0;
#X connect 193 0 164 0;
#X connect 194 0 172 0;
#X connect 194 1 174 0;
#X connect 196 0 194 1;
#X connect 200 0 215 0;
#X connect 200 0 202 0;
#X connect 200 0 201 0;
#X connect 200 0 203 0;
#X connect 201 0 194 3;
#X connect 202 0 194 4;
#X connect 203 0 194 5;
#X connect 204 0 184 0;
#X connect 204 1 186 0;
#X connect 206 0 204 1;
#X connect 210 0 214 0;
#X connect 210 0 213 0;
#X connect 210 0 211 0;
#X connect 210 0 212 0;
#X connect 211 0 204 3;
#X connect 212 0 204 5;
#X connect 213 0 204 4;
#X connect 214 0 204 2;
#X connect 215 0 194 2;
#X connect 216 0 125 0;
#X connect 217 0 123 0;
#X connect 218 0 121 0;
#X connect 219 0 141 0;
#X connect 220 0 152 0;
#X connect 221 0 111 0;
