#N canvas 56 44 1920 976 12;
#X text 177 277 creation arguments are OSC address;
#X text 179 238 set message to change OSC address;
#X text 164 48 1 Set IP Address : network address;
#X text 164 68 2 Set Ports (sending and listening);
#X text 164 87 3 Set OSC Addresses (routing osc data;
#X text 155 26 Key Settings;
#X floatatom 43 194 5 0 0 0 - - - 0;
#N canvas 322 -16 1920 976 oscReceive 1;
#X obj 55 184 netreceive -u -b;
#X msg 78 143 listen 0;
#X text 152 143 stop listening;
#X text 64 58 packets from network;
#X text 173 177 UDP packets \, binary output, f 13;
#X obj 45 314 print;
#X obj 45 272 oscparse;
#X text 150 114 listen on port 8000;
#X obj 177 269 oscparse;
#X obj 177 293 list trim;
#X floatatom 46 406 5 0 0 0 - - - 0;
#X obj 177 319 route unity;
#X msg 66 115 listen 8000;
#X obj 66 84 loadbang;
#X floatatom 178 407 5 0 0 0 - - - 0;
#X floatatom 287 402 5 0 0 0 - - - 0;
#X obj 46 433 s val1;
#X obj 178 434 s val2;
#X obj 287 429 s val3;
#X obj 45 383 route noise_burst;
#X obj 177 384 route triangle;
#X obj 286 379 route sequence_metro;
#X floatatom 118 546 5 0 0 0 - - - 0;
#X obj 117 523 route footstep;
#X obj 118 573 s footstep;
#X floatatom 261 553 5 0 0 0 - - - 0;
#X obj 257 519 route footstep_vol;
#X obj 261 580 s footstep_vol;
#X floatatom 121 657 5 0 0 0 - - - 0;
#X obj 120 634 route jump;
#X obj 121 684 s jump;
#X floatatom 268 676 5 0 0 0 - - - 0;
#X obj 267 653 route jump_vol;
#X obj 268 703 s jump_vol;
#X floatatom 465 471 5 0 0 0 - - - 0;
#X obj 465 498 s stop_DSP;
#X obj 464 448 route stop_DSP;
#X floatatom 511 383 5 0 0 0 - - - 0;
#X obj 510 360 route thunder;
#X obj 511 410 s thunder;
#X connect 0 0 6 0;
#X connect 0 0 8 0;
#X connect 1 0 0 0;
#X connect 6 0 5 0;
#X connect 8 0 9 0;
#X connect 9 0 11 0;
#X connect 10 0 16 0;
#X connect 11 0 19 0;
#X connect 11 0 20 0;
#X connect 11 0 21 0;
#X connect 11 0 23 0;
#X connect 11 0 26 0;
#X connect 11 0 29 0;
#X connect 11 0 32 0;
#X connect 11 0 36 0;
#X connect 11 0 38 0;
#X connect 12 0 0 0;
#X connect 13 0 12 0;
#X connect 14 0 17 0;
#X connect 15 0 18 0;
#X connect 19 0 10 0;
#X connect 20 0 14 0;
#X connect 21 0 15 0;
#X connect 22 0 24 0;
#X connect 23 0 22 0;
#X connect 25 0 27 0;
#X connect 26 0 25 0;
#X connect 28 0 30 0;
#X connect 29 0 28 0;
#X connect 31 0 33 0;
#X connect 32 0 31 0;
#X connect 34 0 35 0;
#X connect 36 0 34 0;
#X connect 37 0 39 0;
#X connect 38 0 37 0;
#X restore 47 142 pd oscReceive;
#X obj 46 36 tgl 15 0 empty empty empty 17 7 0 10 #fcfcfc #000000 #000000 0 1;
#X msg 47 61 \; pd dsp \$1;
#X obj 44 278 oscformat PD message;
#X msg 76 239 set PD message;
#N canvas -5 72 1920 976 oscSend 0;
#X msg 158 207 disconnect;
#X obj 61 253 netsend -u -b;
#X obj 59 55 list prepend send;
#X obj 59 80 list trim;
#X msg 150 175 connect 127.0.0.1 8001;
#X obj 59 29 r oscOut;
#X text 301 163 send to port 8001;
#X msg 147 148 connect localhost 8001;
#X obj 147 108 loadbang;
#X connect 0 0 1 0;
#X connect 2 0 3 0;
#X connect 3 0 1 0;
#X connect 4 0 1 0;
#X connect 5 0 2 0;
#X connect 7 0 1 0;
#X connect 8 0 7 0;
#X restore 47 118 pd oscSend;
#X obj 44 313 s oscOut;
#X obj 497 157 *~;
#X obj 488 202 dac~;
#X obj 561 125 vline~;
#X obj 497 93 noise~;
#X obj 560 33 bng 15 250 50 0 empty empty empty 17 7 0 10 #fcfcfc #000000 #000000;
#X msg 561 73 1 25 \, 0 1000 75;
#X text 475 -32 Trigger noise burst;
#X obj 1176 1009 dac~;
#X obj 1338 767 vsl 19 162 0 1 0 0 empty empty empty 0 -9 0 12 #fcfcfc #000000 #000000 0 1;
#X obj 1185 964 *~;
#X obj 983 458 tgl 19 0 empty empty empty 0 -10 0 12 #fcfcfc #000000 #000000 0 1;
#X floatatom 1287 959 5 0 1 0 - - - 0;
#X floatatom 1087 499 5 0 0 0 - - - 0;
#X obj 987 582 f;
#X obj 1238 764 vline~;
#X obj 1229 934 *~;
#X floatatom 1078 796 5 0 0 0 - - - 0;
#X obj 986 672 select 0 1 2 3;
#X obj 1132 471 hsl 162 19 0 1000 0 0 empty empty empty -2 -10 0 12 #fcfcfc #000000 #000000 0 1;
#X obj 1169 550 hsl 162 19 0.5 4.5 0 0 empty empty empty -2 -10 0 12 #fcfcfc #000000 #000000 0 1;
#X floatatom 1092 576 5 0 0 0 - - - 0;
#X obj 1049 587 + 1;
#X msg 969 752 500;
#X obj 1021 615 mod 5;
#X msg 929 759 400;
#X msg 1006 748 600;
#X msg 1045 744 700;
#X msg 1088 747 800;
#X obj 1010 534 metro 4000;
#X text 1164 574 Horizontal Slider to change the value that is being added to the metronome float \; range: 0.5 - 4.5;
#X text 1183 492 Horizontal Slider to increase the time \; range: 0 - 1000;
#X text 1333 940 Volume Slider;
#X text 822 459 Start/stop metronome;
#X text 813 636 Modulo operation with 5 possible options for the selector;
#X text 1265 736 vline for automation;
#X msg 1240 707 1 50 \, 0 50 \, 1;
#X text 1303 -111 Frequency;
#X obj 717 -25 vsl 19 162 0 1 0 0 empty empty empty 0 -9 0 12 #fcfcfc #000000 #000000 0 1;
#X floatatom 673 146 5 0 0 0 - - - 0;
#X obj 641 181 *~;
#X obj 1161 842 phasor~;
#X obj 1070 864 osc~;
#X obj 554 -5 r val1;
#X obj 1006 346 r val3;
#X obj 1111 340 r val4;
#X obj 1186 338 r val5;
#X obj 1410 773 r val8;
#X obj 71 -57 r stop_DSP;
#X obj 767 609 r vol;
#X text 487 -52 Water splash sound;
#X text 1052 413 BGM;
#X obj 1174 -104 r footstep;
#X obj 142 712 phasor~;
#X obj 169 775 *~;
#X obj 147 948 dac~;
#X obj 155 547 soundfiler;
#X floatatom 155 573 15 0 1e+09 0 - - - 0;
#X obj 179 820 tabread4~ soundData;
#X obj 187 887 *~;
#X floatatom 256 847 5 0 1 0 - - - 0;
#X obj 147 602 expr 44100/$f1;
#X floatatom 231 641 5 0 0 0 - - - 0;
#X obj 271 883 tgl 16 0 empty empty empty 0 -8 0 10 #fcfcfc #000000 #000000 0 1;
#X obj 113 482 bng 16 250 50 0 empty empty empty 0 -8 0 10 #fcfcfc #000000 #000000;
#X msg 155 518 read -resize victory2.wav soundData;
#N canvas 212 36 450 300 (subpatch) 0;
#X array soundData 360576 float 0;
#X coords 0 1 360575 -1 300 100 1;
#X restore 286 682 graph;
#X obj 35 416 r victory_music;
#X obj 378 835 vsl 19 162 0 1 0 0 empty empty empty 0 -9 0 12 #fcfcfc #000000 #000000 0 1;
#X obj 440 838 r victory_music_vol;
#X floatatom 326 895 5 0 0 0 - - - 0;
#X obj 749 -73 r n_vol;
#X text 1022 435 Sequence Playback;
#X obj 1712 522 noise~;
#X obj 1710 665 dac~;
#X obj 1712 544 *~;
#X obj 1633 47 bng 15 250 50 0 empty empty empty 0 -6 0 8 #fcfcfc #000000 #000000;
#X msg 1833 251 0;
#X obj 1768 324 *~;
#X obj 1768 273 phasor~ 20;
#X obj 1768 250 *~ -1;
#X obj 1768 390 *~;
#X obj 1711 618 hip~ 90;
#X obj 1768 163 *~ 6;
#N canvas 78 280 337 375 clamped-modes 0;
#X msg 98 30 1 6.267 17.55 34.39;
#X obj 113 116 *~;
#X obj 98 51 unpack f f f f;
#X obj 144 116 *~;
#X obj 175 115 *~;
#X obj 82 153 cos~;
#X obj 113 153 cos~;
#X obj 144 153 cos~;
#X obj 175 153 cos~;
#X obj 82 116 *~;
#X obj 144 334 *~;
#X obj 82 177 *~ 0.5;
#X obj 113 196 *~ 0.25;
#X obj 144 215 *~ 0.125;
#X obj 175 234 *~ 0.0625;
#X obj 8 6 inlet~ drive;
#X obj 176 267 inlet env;
#X obj 98 6 loadbang;
#X text 244 27 Olsen pp. 76;
#X msg 176 288 1500;
#N canvas 0 0 186 198 quenv 0;
#X msg 8 28 0 \, 1 0 0 \, 0 \$1 0;
#X obj 8 50 vline~;
#X obj 8 75 *~;
#X obj 8 5 inlet;
#X obj 8 126 outlet~;
#X obj 8 101 *~;
#X connect 0 0 1 0;
#X connect 1 0 2 0;
#X connect 1 0 2 1;
#X connect 2 0 5 0;
#X connect 2 0 5 1;
#X connect 3 0 0 0;
#X connect 5 0 4 0;
#X restore 176 309 pd quenv;
#X obj 143 356 outlet~;
#X connect 0 0 2 0;
#X connect 1 0 6 0;
#X connect 2 0 9 1;
#X connect 2 1 1 1;
#X connect 2 2 3 1;
#X connect 2 3 4 1;
#X connect 3 0 7 0;
#X connect 4 0 8 0;
#X connect 5 0 11 0;
#X connect 6 0 12 0;
#X connect 7 0 13 0;
#X connect 8 0 14 0;
#X connect 9 0 5 0;
#X connect 10 0 21 0;
#X connect 11 0 10 0;
#X connect 12 0 10 0;
#X connect 13 0 10 0;
#X connect 14 0 10 0;
#X connect 15 0 1 0;
#X connect 15 0 3 0;
#X connect 15 0 4 0;
#X connect 15 0 9 0;
#X connect 16 0 19 0;
#X connect 17 0 0 0;
#X connect 19 0 20 0;
#X connect 20 0 10 1;
#X restore 1863 354 pd clamped-modes;
#N canvas 0 0 478 298 free-modes 0;
#X obj 107 53 unpack f f f f f f;
#X obj 4 127 inlet~;
#X obj 155 249 outlet~;
#X msg 107 32 1 2.7565 5.40392 8.93295 13.3443 18.6379;
#X obj 107 9 loadbang;
#X text 177 10 from Benson pp.128;
#X obj 356 120 inlet res;
#X obj 4 206 vcf~ 1 1;
#X obj 64 206 vcf~ 1 1;
#X obj 124 206 vcf~ 1 1;
#X obj 184 206 vcf~ 1 1;
#X obj 244 206 vcf~ 1 1;
#X obj 305 206 vcf~ 1 1;
#X obj 89 124 *~;
#X obj 119 124 *~;
#X obj 149 124 *~;
#X obj 179 124 *~;
#X obj 209 124 *~;
#X obj 239 124 *~;
#X obj 35 37 inlet~;
#X connect 0 0 13 1;
#X connect 0 1 14 1;
#X connect 0 2 15 1;
#X connect 0 3 16 1;
#X connect 0 4 17 1;
#X connect 0 5 18 1;
#X connect 1 0 7 0;
#X connect 1 0 8 0;
#X connect 1 0 9 0;
#X connect 1 0 10 0;
#X connect 1 0 11 0;
#X connect 1 0 12 0;
#X connect 3 0 0 0;
#X connect 4 0 3 0;
#X connect 6 0 7 2;
#X connect 6 0 8 2;
#X connect 6 0 9 2;
#X connect 6 0 10 2;
#X connect 6 0 11 2;
#X connect 6 0 12 2;
#X connect 7 0 2 0;
#X connect 8 0 2 0;
#X connect 9 0 2 0;
#X connect 10 0 2 0;
#X connect 11 0 2 0;
#X connect 12 0 2 0;
#X connect 13 0 7 1;
#X connect 14 0 8 1;
#X connect 15 0 9 1;
#X connect 16 0 10 1;
#X connect 17 0 11 1;
#X connect 18 0 12 1;
#X connect 19 0 13 0;
#X connect 19 0 14 0;
#X connect 19 0 15 0;
#X connect 19 0 16 0;
#X connect 19 0 17 0;
#X connect 19 0 18 0;
#X restore 1712 590 pd free-modes;
#X obj 1712 566 lop~ 4000;
#X obj 1768 229 +~;
#X obj 1833 228 r trig;
#X obj 1633 66 s trig;
#X obj 1970 331 r trig;
#X obj 1754 68 r trig;
#X msg 1798 568 80;
#X obj 1798 548 loadbang;
#X obj 1863 402 *~ 0.2;
#X obj 1711 639 *~ 4;
#X msg 1754 89 7000;
#X obj 1635 122 sig~;
#X obj 1635 239 s~ freq;
#X obj 1784 186 r~ freq;
#X obj 1784 207 /~ 4;
#X obj 1787 431 r~ freq;
#X obj 1770 452 *~ 0.1;
#X obj 1755 473 *~;
#X obj 1754 494 +~;
#X obj 1635 217 +~;
#X obj 1652 195 *~;
#X obj 1668 177 nbx 5 12 1 6 0 1 empty empty vibrato 0 -6 1 8 #fcfcfc #000000 #000000 6 256;
#X obj 1635 105 nbx 5 12 20 800 0 1 empty empty frequency 0 -6 1 8 #fcfcfc #000000 #000000 426 256;
#X obj 1652 142 osc~ 5;
#X obj 1754 135 *~ 3;
#N canvas 0 0 243 468 env16p 0;
#X msg 8 28 0 \, 1 0 0 \, 0 \$1 0;
#X obj 8 50 vline~;
#X obj 8 75 *~;
#X obj 8 5 inlet;
#X obj 8 211 outlet~;
#X obj 8 101 *~;
#X obj 8 125 *~;
#X obj 8 147 *~;
#X obj 8 167 *~;
#X obj 8 189 *~;
#X connect 0 0 1 0;
#X connect 1 0 2 0;
#X connect 1 0 2 1;
#X connect 2 0 5 0;
#X connect 2 0 5 1;
#X connect 3 0 0 0;
#X connect 5 0 6 0;
#X connect 5 0 6 1;
#X connect 6 0 7 0;
#X connect 6 0 7 1;
#X connect 7 0 8 0;
#X connect 7 0 8 1;
#X connect 8 0 9 0;
#X connect 8 0 9 1;
#X connect 9 0 4 0;
#X restore 1754 110 pd env16p;
#X obj 1633 2 r jump;
#X obj 1164 90 *~ 0.1;
#X obj 1164 113 sqrt~;
#X obj 1160 278 dac~;
#X obj 1164 -52 vline~;
#X obj 1164 14 cos~;
#X obj 1164 36 lop~ 0.1;
#X msg 1262 -16 0 \, 1 500;
#X text 1235 -74 press repeatedly;
#N canvas 216 38 368 237 regular-roll 0;
#X obj 74 193 rzero~ 0.9;
#X obj -2 66 phasor~ 1;
#X obj -2 139 wrap~;
#X obj 51 139 wrap~;
#X obj 102 139 wrap~;
#X obj 155 138 wrap~;
#X obj 68 66 unpack f f f f f f f f;
#X msg 89 44 2 0.1 3 0.05 4.2 0.02 5.6 0.012;
#X msg 107 23 1.3 0.1 1.7 0.05 2.4 0.02 8.1 0.012;
#X obj 89 -2 loadbang;
#X text 179 2 roll pattern;
#X obj 74 216 outlet~;
#X obj -2 -2 inlet~ speed;
#X obj -2 119 *~;
#X obj 51 119 *~;
#X obj 102 119 *~;
#X obj 155 118 *~;
#X obj -2 160 *~;
#X obj 51 160 *~;
#X obj 102 160 *~;
#X obj 155 160 *~;
#X connect 0 0 11 0;
#X connect 1 0 13 0;
#X connect 1 0 14 0;
#X connect 1 0 15 0;
#X connect 1 0 16 0;
#X connect 2 0 17 0;
#X connect 3 0 18 0;
#X connect 4 0 19 0;
#X connect 5 0 20 0;
#X connect 6 0 13 1;
#X connect 6 1 17 1;
#X connect 6 2 14 1;
#X connect 6 3 18 1;
#X connect 6 4 15 1;
#X connect 6 5 19 1;
#X connect 6 6 16 1;
#X connect 6 7 20 1;
#X connect 7 0 6 0;
#X connect 8 0 6 0;
#X connect 9 0 7 0;
#X connect 12 0 1 0;
#X connect 13 0 2 0;
#X connect 14 0 3 0;
#X connect 15 0 4 0;
#X connect 16 0 5 0;
#X connect 17 0 0 0;
#X connect 18 0 0 0;
#X connect 19 0 0 0;
#X connect 20 0 0 0;
#X restore 1217 91 pd regular-roll;
#N canvas 672 161 251 307 irregular-ground 0;
#X obj 18 -50 noise~;
#X obj 18 -13 max~ 0;
#X msg 938 99 0.54;
#X obj 19 109 samphold~;
#X obj 19 132 rzero~ 0.99;
#X obj 20 208 outlet~;
#X obj 141 6 phasor~ 12;
#X obj 76 56 +~;
#X obj 76 9 *~ 0.001;
#X obj 19 182 *~;
#X obj 142 -23 *~ 100;
#X obj 142 -70 inlet~ speed;
#X obj 19 155 *~ 0.05;
#X connect 0 0 1 0;
#X connect 0 0 8 0;
#X connect 1 0 3 0;
#X connect 3 0 4 0;
#X connect 4 0 12 0;
#X connect 6 0 7 1;
#X connect 7 0 3 1;
#X connect 8 0 7 0;
#X connect 9 0 5 0;
#X connect 10 0 6 0;
#X connect 11 0 10 0;
#X connect 11 0 9 1;
#X connect 12 0 9 0;
#X restore 1217 148 pd irregular-ground;
#X obj 1164 184 *~;
#X obj 1217 123 *~ 0.5;
#N canvas 231 301 272 251 tincan 0;
#X obj 76 190 *~ 1000;
#X obj 76 232 *~ 0.4;
#X obj -2 0 inlet~;
#X obj 94 1 loadbang;
#X obj 76 253 outlet~;
#X msg 94 23 359 426 1748 3000 123;
#X obj 94 45 unpack f f f f f;
#X obj -2 135 bp~ 1 1;
#X obj 76 135 bp~ 1 1;
#X obj 143 136 bp~ 1 1;
#X obj 213 136 bp~ 1 1;
#X obj 76 157 *~ 0.3;
#X obj 213 157 *~ 0.2;
#X obj -2 158 *~ 0.2;
#X obj 143 157 *~ 0.3;
#X obj 76 211 clip~ -0.3 0.3;
#X connect 0 0 15 0;
#X connect 1 0 4 0;
#X connect 2 0 7 0;
#X connect 2 0 8 0;
#X connect 2 0 9 0;
#X connect 2 0 10 0;
#X connect 3 0 5 0;
#X connect 5 0 6 0;
#X connect 6 0 7 1;
#X connect 6 1 8 1;
#X connect 6 2 9 1;
#X connect 6 3 10 1;
#X connect 6 4 8 2;
#X connect 6 4 7 2;
#X connect 6 4 9 2;
#X connect 6 4 10 2;
#X connect 7 0 13 0;
#X connect 8 0 11 0;
#X connect 9 0 14 0;
#X connect 10 0 12 0;
#X connect 11 0 0 0;
#X connect 12 0 0 0;
#X connect 13 0 0 0;
#X connect 14 0 0 0;
#X connect 15 0 1 0;
#X coords 0 0 1 1 240 160 0;
#X restore 1164 229 pd tincan;
#X obj 1261 -43 bng 16 250 50 0 empty empty empty 0 -8 0 10 #fcfcfc #000000 #000000;
#X obj 1164 207 hip~ 20;
#X obj 1164 -8 -~ 0.15;
#X obj 1164 -30 *~ 0.5;
#X obj 1164 58 *~ 1.2;
#X obj 1746 781 *~ 0.9;
#N canvas 152 29 188 323 afterimage 0;
#X obj 1 114 noise~;
#X obj 16 176 noise~;
#X obj 1 199 *~;
#X obj 1 241 bp~ 333 4;
#X obj 1 135 lop~ 3;
#X obj 1 220 clip~ -1 1;
#X obj 52 68 line;
#X obj 52 109 + 3;
#X obj 52 89 * 30;
#X obj 1 156 *~ 80;
#X obj 117 67 line;
#X obj 1 263 *~;
#X msg 52 48 1 \, 0 600;
#X msg 117 47 1 \, 0 6000;
#X obj 1 283 *~ 0.9;
#X obj 85 23 del 200;
#X obj 85 1 inlet;
#X obj 1 303 outlet~;
#X connect 0 0 4 0;
#X connect 1 0 2 1;
#X connect 2 0 5 0;
#X connect 3 0 11 0;
#X connect 4 0 9 0;
#X connect 5 0 3 0;
#X connect 6 0 8 0;
#X connect 7 0 4 1;
#X connect 8 0 7 0;
#X connect 9 0 2 0;
#X connect 10 0 11 1;
#X connect 11 0 14 0;
#X connect 12 0 6 0;
#X connect 13 0 10 0;
#X connect 14 0 17 0;
#X connect 15 0 12 0;
#X connect 15 0 13 0;
#X connect 16 0 15 0;
#X restore 1746 759 pd afterimage;
#X obj 1770 930 distance;
#X obj 1821 906 line;
#X obj 1509 739 r go;
#X obj 1746 736 r go;
#X obj 1848 734 r go;
#X obj 1626 738 r go;
#X obj 1684 717 line;
#X msg 1684 694 1 \, 0 9000;
#X obj 1684 672 r go;
#X obj 1821 861 r go;
#X obj 1770 1016 dac~;
#X obj 1784 956 s~ udly;
#X obj 1624 932 catch~ la;
#X obj 1866 931 catch~ ra;
#X obj 1988 780 s shake;
#X obj 1988 759 r go;
#X obj 1510 680 bng 15 250 50 0 empty empty empty 0 -6 0 8 #fcfcfc #000000 #000000;
#X obj 1510 702 s go;
#X obj 1684 739 * 2000;
#X msg 1821 883 0 \, 1 12000;
#X obj 1746 803 throw~ out;
#X obj 1695 932 catch~ out;
#X obj 1848 803 throw~ distance;
#X obj 1627 803 throw~ distance;
#X obj 1770 841 catch~ distance;
#N canvas 132 138 177 510 rumble 0;
#X obj 17 110 noise~;
#X obj 33 314 -~ 0.5;
#X obj 33 339 *~;
#X obj 33 359 *~ -4;
#X obj 33 379 +~ 1;
#X obj 33 399 *~ 0.5;
#X obj 75 28 noise~;
#X obj 75 89 max~ 0;
#X obj 17 172 samphold~;
#X msg 938 102 0.54;
#X obj 75 151 phasor~;
#X obj 75 111 *~ 3000;
#X obj 17 419 *~;
#X obj 17 439 hip~ 100;
#X obj 17 192 rpole~ 0.99;
#X obj 17 212 *~ 0.04;
#X obj 75 131 +~ 1;
#X obj 81 -12 inlet density;
#X obj 17 131 lop~;
#X obj 17 152 lop~;
#X obj 75 68 lop~;
#X obj 75 48 lop~;
#X obj 1 480 outlet~;
#X obj 17 241 min~ 0;
#X obj 17 263 *~ -1;
#X obj 65 240 max~ 0;
#X obj 17 286 +~;
#X obj 1 28 vline~;
#X obj 1 459 *~;
#X obj 1 -12 inlet trig;
#X msg 1 8 1 50 \, 0 8000 50;
#X connect 0 0 18 0;
#X connect 1 0 2 0;
#X connect 1 0 2 1;
#X connect 2 0 3 0;
#X connect 3 0 4 0;
#X connect 4 0 5 0;
#X connect 5 0 12 1;
#X connect 6 0 21 0;
#X connect 7 0 11 0;
#X connect 8 0 14 0;
#X connect 10 0 8 1;
#X connect 11 0 16 0;
#X connect 12 0 13 0;
#X connect 13 0 28 1;
#X connect 14 0 15 0;
#X connect 15 0 25 0;
#X connect 15 0 23 0;
#X connect 16 0 10 0;
#X connect 17 0 20 1;
#X connect 17 0 21 1;
#X connect 17 0 18 1;
#X connect 17 0 19 1;
#X connect 18 0 19 0;
#X connect 19 0 8 0;
#X connect 20 0 7 0;
#X connect 21 0 20 0;
#X connect 23 0 24 0;
#X connect 24 0 26 0;
#X connect 25 0 26 1;
#X connect 26 0 1 0;
#X connect 26 0 12 0;
#X connect 27 0 28 0;
#X connect 28 0 22 0;
#X connect 29 0 30 0;
#X connect 30 0 27 0;
#X restore 1626 761 pd rumble;
#N canvas 264 575 152 190 strike 0;
#X obj 0 172 outlet~;
#X obj 1 44 route 0 1 2 3;
#X obj 1 0 inlet;
#X obj 1 23 strike-pattern;
#X obj 1 67 strike-sound;
#X obj 22 87 strike-sound;
#X obj 44 107 strike-sound;
#X obj 65 126 strike-sound;
#X connect 1 0 4 0;
#X connect 1 1 5 0;
#X connect 1 2 6 0;
#X connect 1 3 7 0;
#X connect 2 0 3 0;
#X connect 3 0 1 0;
#X connect 4 0 0 0;
#X connect 5 0 0 0;
#X connect 6 0 0 0;
#X connect 7 0 0 0;
#X restore 1509 762 pd strike sound;
#N canvas 148 116 232 212 deep 0;
#X obj 8 -8 noise~;
#X obj 7 161 *~;
#X obj 84 115 *~;
#X obj 84 49 del 1000;
#X obj 84 28 inlet;
#X obj 7 181 outlet~;
#X obj 84 91 vline~;
#X msg 84 70 1 2000 \, 0 20000 2000;
#X obj 8 12 lop~ 80;
#X obj 8 32 lop~ 80;
#X obj 8 52 hip~ 15;
#X obj 8 92 clip~ -1 1;
#X obj 8 72 *~ 12;
#X obj 8 112 lop~ 80;
#X obj 8 132 lop~ 80;
#X connect 0 0 8 0;
#X connect 1 0 5 0;
#X connect 2 0 1 1;
#X connect 3 0 7 0;
#X connect 4 0 3 0;
#X connect 6 0 2 0;
#X connect 6 0 2 1;
#X connect 7 0 6 0;
#X connect 8 0 9 0;
#X connect 9 0 10 0;
#X connect 10 0 12 0;
#X connect 11 0 13 0;
#X connect 12 0 11 0;
#X connect 13 0 14 0;
#X connect 14 0 1 0;
#X restore 1848 756 pd deep;
#X obj 1509 803 throw~ out;
#X obj 1509 783 *~ 0.3;
#X obj 1627 782 *~ 0.3;
#X obj 1848 779 *~ 0.5;
#X obj 1496 637 r thunder;
#X connect 6 0 10 0;
#X connect 8 0 9 0;
#X connect 10 0 13 0;
#X connect 11 0 10 0;
#X connect 14 0 15 0;
#X connect 14 0 15 1;
#X connect 16 0 53 0;
#X connect 17 0 14 0;
#X connect 18 0 19 0;
#X connect 19 0 16 0;
#X connect 22 0 25 0;
#X connect 23 0 21 0;
#X connect 23 0 21 1;
#X connect 24 0 42 0;
#X connect 25 0 29 1;
#X connect 26 0 42 1;
#X connect 27 0 35 0;
#X connect 27 0 37 0;
#X connect 28 0 29 0;
#X connect 29 0 23 1;
#X connect 30 0 54 0;
#X connect 30 0 55 0;
#X connect 31 0 38 0;
#X connect 31 1 36 0;
#X connect 31 2 39 0;
#X connect 31 3 40 0;
#X connect 31 4 41 0;
#X connect 32 0 26 0;
#X connect 33 0 34 0;
#X connect 34 0 35 1;
#X connect 35 0 27 1;
#X connect 36 0 30 0;
#X connect 37 0 31 0;
#X connect 37 0 49 0;
#X connect 38 0 30 0;
#X connect 39 0 30 0;
#X connect 40 0 30 0;
#X connect 41 0 30 0;
#X connect 42 0 27 0;
#X connect 49 0 28 0;
#X connect 51 0 52 0;
#X connect 52 0 53 1;
#X connect 53 0 14 1;
#X connect 54 0 23 0;
#X connect 55 0 23 0;
#X connect 56 0 18 0;
#X connect 57 0 24 0;
#X connect 58 0 32 0;
#X connect 59 0 33 0;
#X connect 60 0 22 0;
#X connect 61 0 8 0;
#X connect 65 0 139 0;
#X connect 66 0 67 0;
#X connect 67 0 71 0;
#X connect 69 0 70 0;
#X connect 70 0 67 1;
#X connect 70 0 74 0;
#X connect 71 0 72 0;
#X connect 72 0 68 0;
#X connect 72 0 68 1;
#X connect 74 0 75 0;
#X connect 75 0 66 0;
#X connect 76 0 72 1;
#X connect 77 0 78 0;
#X connect 78 0 69 0;
#X connect 80 0 77 0;
#X connect 80 0 76 0;
#X connect 81 0 83 0;
#X connect 82 0 81 0;
#X connect 83 0 76 0;
#X connect 84 0 51 0;
#X connect 86 0 88 0;
#X connect 88 0 99 0;
#X connect 89 0 102 0;
#X connect 90 0 92 1;
#X connect 91 0 94 0;
#X connect 92 0 97 0;
#X connect 92 0 91 0;
#X connect 92 0 91 1;
#X connect 93 0 92 0;
#X connect 94 0 88 1;
#X connect 95 0 108 0;
#X connect 96 0 100 0;
#X connect 97 0 107 0;
#X connect 97 0 94 1;
#X connect 98 0 95 0;
#X connect 99 0 98 0;
#X connect 100 0 93 0;
#X connect 101 0 90 0;
#X connect 103 0 97 1;
#X connect 104 0 109 0;
#X connect 105 0 98 2;
#X connect 106 0 105 0;
#X connect 107 0 95 0;
#X connect 108 0 87 0;
#X connect 108 0 87 1;
#X connect 109 0 124 0;
#X connect 110 0 118 0;
#X connect 112 0 113 0;
#X connect 113 0 100 1;
#X connect 114 0 115 0;
#X connect 114 0 117 1;
#X connect 115 0 116 1;
#X connect 116 0 117 0;
#X connect 117 0 98 1;
#X connect 118 0 111 0;
#X connect 119 0 118 1;
#X connect 120 0 119 1;
#X connect 121 0 110 0;
#X connect 122 0 119 0;
#X connect 123 0 96 0;
#X connect 123 0 116 0;
#X connect 124 0 123 0;
#X connect 125 0 89 0;
#X connect 126 0 127 0;
#X connect 127 0 136 0;
#X connect 129 0 142 0;
#X connect 130 0 131 0;
#X connect 131 0 143 0;
#X connect 132 0 129 0;
#X connect 134 0 136 1;
#X connect 135 0 136 1;
#X connect 136 0 140 0;
#X connect 137 0 135 0;
#X connect 138 0 128 0;
#X connect 138 0 128 1;
#X connect 139 0 132 0;
#X connect 140 0 138 0;
#X connect 141 0 130 0;
#X connect 142 0 141 0;
#X connect 143 0 126 0;
#X connect 143 0 134 0;
#X connect 143 0 137 0;
#X connect 144 0 166 0;
#X connect 145 0 144 0;
#X connect 146 0 156 0;
#X connect 146 0 156 1;
#X connect 146 0 157 0;
#X connect 147 0 146 1;
#X connect 148 0 172 0;
#X connect 149 0 145 0;
#X connect 150 0 173 0;
#X connect 151 0 171 0;
#X connect 152 0 164 0;
#X connect 153 0 152 0;
#X connect 154 0 153 0;
#X connect 155 0 165 0;
#X connect 158 0 156 0;
#X connect 159 0 156 1;
#X connect 161 0 160 0;
#X connect 162 0 163 0;
#X connect 164 0 171 1;
#X connect 165 0 147 0;
#X connect 167 0 156 0;
#X connect 167 0 156 1;
#X connect 170 0 146 0;
#X connect 171 0 176 0;
#X connect 172 0 175 0;
#X connect 173 0 177 0;
#X connect 175 0 174 0;
#X connect 176 0 169 0;
#X connect 177 0 168 0;
#X connect 178 0 162 0;
